<?xml version="1.0" encoding="UTF-8"?>
<!-- Generator: Adobe Illustrator 24.1.0, SVG Export Plug-In . SVG Version: 6.00 Build 0)  -->
<svg version="1.1" id="Calque_1" xmlns="http://www.w3.org/2000/svg" xmlns:xlink="http://www.w3.org/1999/xlink" x="0px" y="0px" viewBox="0 0 520 320" style="enable-background:new 0 0 520 320;" xml:space="preserve">
<style type="text/css">
	.st0{fill:#F7F7F7;}
	.st1{opacity:0.5;fill:#989898;enable-background:new    ;}
	.st2{fill:#989898;stroke:#999999;stroke-width:2.5;stroke-linecap:round;stroke-linejoin:round;}
	.st3{fill:#989898;}
	.st4{opacity:0.7;fill:#989898;enable-background:new    ;}
</style>
<g id="Calque_2_1_">
	<g id="Calque_1-2">
		<rect x="-13.3" y="-12.2" class="st0" width="546.6" height="344.5"/>
		<polygon class="st1" points="393.5,236.4 344.4,241.8 403.2,229   "/>
		<path class="st2" d="M490.4,210.9l-0.3-129.5L260.4,59.8v-0.1h-0.6h-0.6v0.1L29.6,82.6l0.3,129.5L259.7,260v0.3l0.6-0.1l0.6,0.1    V260L490.4,210.9z M31.1,211.2L30.8,83.7L259.2,61l0.3,90.3l0.3,107.5L31.1,211.2z M260.7,172l-0.3-111l228.4,21.4l0.3,127.4    l-228.1,49L260.7,172z"/>
		<polygon class="st0" points="340.5,171.4 280.8,176.1 280.8,88.4 340.5,91.9   "/>
		<path class="st3" d="M285.7,93.6l50,2.9v70.4l-50,4V93.6 M280.8,88.4v87.9l59.7-4.7V91.9L280.8,88.4L280.8,88.4z"/>
		<polygon class="st0" points="459,173.2 400.8,179.7 400.8,111.1 458.7,112.3   "/>
		<path class="st3" d="M400,180.6v-70.3l59.5,1.2l0.4,62.4h-0.7L400,180.6z M401.6,111.9v67l56.5-6.3l-0.3-59.6L401.6,111.9z"/>
		<polygon class="st3" points="450.8,165.3 409.1,170 409.1,120.8 450.5,121.7   "/>
		<rect x="429.4" y="114.6" class="st0" width="1.2" height="58.5"/>
		<path class="st0" d="M81.4,191.7l137.5,19.9c1.3,0.2,2.6-0.7,2.8-2c0-0.1,0-0.2,0-0.4v-114c0-1.3-1.1-2.4-2.4-2.4h-0.1l-137.7,7.4    c-0.6,0-1.2,0.6-1.2,1.2v89.2C80.3,191.1,80.8,191.7,81.4,191.7z"/>
		<path class="st3" d="M219.2,95.2L219.2,95.2v114L82.8,189.5v-86.9L219.2,95.2L219.2,95.2 M219.2,92.8L219.2,92.8l-137.7,7.4    c-0.6,0-1.2,0.6-1.2,1.2v89.2c0,0.6,0.4,1.1,1,1.2l137.5,19.9h0.3c1.3,0,2.4-1.1,2.4-2.4l0,0v-114    C221.6,93.9,220.5,92.8,219.2,92.8L219.2,92.8z"/>
		<path class="st3" d="M330.7,111.5c0,3.6-1.8,6.9-4.8,8.8c-5,2.8-12.3,0-12.3-8.8s7.3-11.6,12.3-8.8    C329,104.7,330.8,108,330.7,111.5z"/>
		<polygon class="st4" points="116,114.6 170.5,195.6 109.7,135 95.3,120.6 103.9,109.8 108.7,103.7   "/>
		<polygon class="st3" points="122.9,130.9 216,101.2 140.7,142.7 122.9,152.5 115,141.3 110.4,134.9   "/>
		<polygon class="st0" points="113.7,141.1 178.9,154 120.4,154 106.6,154 105.5,144.6 104.9,139.4   "/>
		<path class="st3" d="M106.3,140.9l7.1,1.4l53,10.5h-58.8l-0.9-8.3L106.3,140.9 M104.9,139.3l0.6,5.3l1,9.3h72.4L113.7,141    L104.9,139.3L104.9,139.3z"/>
		<polygon class="st4" points="186.3,202.3 207.1,204.8 207.1,159.7 186.4,158.5   "/>
		<polygon class="st0" points="427,162.7 405.1,163.9 378.3,162.7 396.8,161.3   "/>
		<path class="st3" d="M405.1,164.7l-26.8-1.2c-0.4,0-0.8-0.4-0.8-0.8c0-0.4,0.4-0.8,0.8-0.8l18.5-1.4l30.3,1.4    c0.4,0,0.8,0.4,0.8,0.8c0,0.4-0.4,0.8-0.8,0.8L405.1,164.7z M391.3,162.5l13.8,0.6l6.4-0.4l-14.8-0.7L391.3,162.5z"/>
		<polyline class="st0" points="427,162.7 427,233.2 405.1,238.3 405.1,163.9 427,162.1   "/>
		<path class="st3" d="M405.1,239.1c-0.4,0-0.8-0.4-0.8-0.8l0,0V164c0-0.4,0.3-0.8,0.7-0.8l21.9-1.8c0.4,0,0.8,0.3,0.9,0.7l0,0    c0,0.1,0,0.2,0,0.3s0,0.2,0,0.4v70.5c0,0.4-0.3,0.7-0.6,0.8l-21.9,5.1L405.1,239.1L405.1,239.1z M405.9,164.7v72.6l20.3-4.7V163    L405.9,164.7z"/>
		<polyline class="st0" points="378.3,162.7 378.3,234.4 405.1,238.3 405.1,163.9 378.3,162.7   "/>
		<path class="st3" d="M405.1,239.1H405l-26.8-3.9c-0.4-0.1-0.7-0.4-0.7-0.8v-71.7c0-0.2,0.1-0.4,0.3-0.6c0.2-0.1,0.4-0.2,0.6-0.2    l26.8,1.2c0.4,0,0.8,0.4,0.8,0.8v74.3C405.9,238.7,405.5,239.1,405.1,239.1L405.1,239.1L405.1,239.1z M379.1,233.7l25.1,3.6v-72.7    l-25.1-1.2V233.7z"/>
		<path class="st0" d="M418.4,142.9c0.1-6.1-2.4-12-6.8-16.3c-8.4-7.2-23.5-3.9-23.5,16.3s15.2,23.5,23.5,16.3    C416,154.9,418.5,149,418.4,142.9z"/>
		<path class="st3" d="M402.5,163.4c-1.9,0-3.9-0.4-5.6-1.2c-6.1-2.8-9.5-9.8-9.5-19.3s3.5-16.5,9.5-19.3c5.1-2.2,11.1-1.3,15.3,2.4    c9.3,9.2,9.4,24.3,0.2,33.6c-0.1,0.1-0.1,0.1-0.2,0.2C409.5,162.1,406,163.4,402.5,163.4z M402.5,123.9c-1.7,0-3.4,0.4-5,1.1    c-5.5,2.5-8.6,9-8.6,17.9s3.1,15.4,8.6,17.9c4.6,2,9.9,1.2,13.6-2.1c8.7-8.7,8.7-22.7,0-31.4C408.7,125.1,405.7,123.9,402.5,123.9    L402.5,123.9z"/>
		<path class="st0" d="M416.9,142.9c0-4.5-1.9-9.3-5.3-11.3c-5.1-3-11.8,1.2-11.8,11.3s6.7,14.3,11.8,11.3    C415,152.2,416.9,147.4,416.9,142.9z"/>
		<path class="st3" d="M408.2,155.9c-1.3,0-2.6-0.3-3.7-1c-3.5-2-5.5-6.5-5.5-12s2.1-10.1,5.5-12c2.3-1.4,5.2-1.4,7.5,0    c3.4,2.1,5.7,6.8,5.7,12s-2.3,9.9-5.7,12C410.9,155.5,409.6,155.9,408.2,155.9z M408.2,131.4c-1,0-2,0.3-2.9,0.8    c-3,1.7-4.7,5.7-4.7,10.7s1.8,9,4.7,10.7c1.8,1.1,4.1,1.1,5.9,0c2.9-1.7,4.9-6.1,4.9-10.6s-2.1-8.9-4.9-10.6    C410.3,131.8,409.3,131.5,408.2,131.4z"/>
		<path class="st0" d="M412.1,115.7c-4,3.6-7.6,7.5-10.8,11.8c-5.9,8.1-11,16.8-15.3,25.8l-11.5-8.5c6.5-6.3,12-11.6,16.6-16.3    c4.2-4.3,7.5-7.7,10-10.5L412.1,115.7z"/>
		<path class="st3" d="M386.1,154.1c-0.2,0-0.3-0.1-0.5-0.2l-11.5-8.5c-0.3-0.3-0.4-0.8-0.1-1.1l0.1-0.1c6.4-6.2,12-11.6,16.6-16.3    c3.9-3.9,7.2-7.5,9.9-10.5c0.1-0.1,0.3-0.2,0.4-0.3l10.9-2.3c0.4-0.1,0.8,0.2,0.9,0.6c0,0.3,0,0.5-0.2,0.7    c-3.9,3.6-7.5,7.5-10.7,11.7c-5.9,8.1-11,16.7-15.3,25.7c-0.1,0.2-0.3,0.4-0.5,0.4L386.1,154.1z M375.9,144.8l9.9,7.4    c4.2-8.8,9.2-17.2,14.9-25.1c2.7-3.5,5.6-6.9,8.8-10l-7.9,1.7c-2.7,3-6,6.5-9.8,10.3C387.4,133.6,382,138.8,375.9,144.8z"/>
		<path class="st0" d="M412.1,115.7c-4,3.6-7.6,7.5-10.8,11.8c-5.9,8.1-11,16.8-15.3,25.8l-11.5-8.5c6.5-6.3,12-11.6,16.6-16.3    c4.2-4.3,7.5-7.7,10-10.5L412.1,115.7z"/>
		<path class="st3" d="M386.1,154.1c-0.2,0-0.3-0.1-0.5-0.2l-11.5-8.5c-0.3-0.3-0.4-0.8-0.1-1.1l0.1-0.1c6.4-6.2,12-11.6,16.6-16.3    c3.9-3.9,7.2-7.5,9.9-10.5c0.1-0.1,0.3-0.2,0.4-0.3l10.9-2.3c0.4-0.1,0.8,0.2,0.9,0.6c0,0.3,0,0.5-0.2,0.7    c-3.9,3.6-7.5,7.5-10.7,11.7c-5.9,8.1-11,16.7-15.3,25.7c-0.1,0.2-0.3,0.4-0.5,0.4L386.1,154.1z M375.9,144.8l9.9,7.4    c4.2-8.8,9.2-17.2,14.9-25.1c2.7-3.5,5.6-6.9,8.8-10l-7.9,1.7c-2.7,3-6,6.5-9.8,10.3C387.4,133.6,382,138.8,375.9,144.8z"/>
		<path class="st1" d="M408.1,130.2c7,2.9,10.4,10.9,7.5,17.9c-1.4,3.4-4.1,6.1-7.5,7.5C412.5,147.7,412.5,138.1,408.1,130.2z"/>
		<path class="st0" d="M408.8,154.4c3.6-7.3,3.6-15.9,0-23.2"/>
		<path class="st3" d="M408.8,155.3c-0.4,0-0.8-0.4-0.8-0.8c0-0.1,0-0.2,0.1-0.3c3.5-7.1,3.5-15.4,0-22.5c-0.2-0.4,0-0.9,0.4-1.1    c0.4-0.2,0.9,0,1.1,0.4c3.7,7.5,3.7,16.4,0,23.9C409.3,155.1,409.1,155.3,408.8,155.3z"/>
	</g>
</g>
</svg>