<?xml version="1.0" encoding="UTF-8" standalone="no"?>
<!-- Generator: Adobe Illustrator 25.2.3, SVG Export Plug-In . SVG Version: 6.00 Build 0)  -->

<svg
   version="1.1"
   id="Calque_1"
   x="0px"
   y="0px"
   viewBox="0 0 258.60001 141.50001"
   xml:space="preserve"
   sodipodi:docname="logo.svg"
   width="103.44"
   height="56.600002"
   inkscape:version="1.2.2 (b0a8486541, 2022-12-01)"
   xmlns:inkscape="http://www.inkscape.org/namespaces/inkscape"
   xmlns:sodipodi="http://sodipodi.sourceforge.net/DTD/sodipodi-0.dtd"
   xmlns="http://www.w3.org/2000/svg"
   xmlns:svg="http://www.w3.org/2000/svg"><defs
   id="defs136" /><sodipodi:namedview
   id="namedview134"
   pagecolor="#ffffff"
   bordercolor="#666666"
   borderopacity="1.0"
   inkscape:showpageshadow="2"
   inkscape:pageopacity="0.0"
   inkscape:pagecheckerboard="0"
   inkscape:deskcolor="#d1d1d1"
   showgrid="false"
   inkscape:zoom="5.146945"
   inkscape:cx="129.49429"
   inkscape:cy="71.012999"
   inkscape:window-width="1878"
   inkscape:window-height="1011"
   inkscape:window-x="42"
   inkscape:window-y="32"
   inkscape:window-maximized="1"
   inkscape:current-layer="Calque_1" />
<style
   type="text/css"
   id="style2">
	.st0{fill:url(#SVGID_1_);}
	.st1{fill:url(#SVGID_2_);}
	.st2{fill:url(#SVGID_3_);}
</style>
<linearGradient
   id="SVGID_1_"
   gradientUnits="userSpaceOnUse"
   x1="6723.6147"
   y1="1159.8188"
   x2="6592.8706"
   y2="1118.3826"
   gradientTransform="matrix(0.3215,0.9469,-0.9469,0.3215,-857.4031,-6599.9111)">
	<stop
   offset="0"
   style="stop-color:#35348A"
   id="stop4" />
	<stop
   offset="3.629284e-02"
   style="stop-color:#433387"
   id="stop6" />
	<stop
   offset="0.1054"
   style="stop-color:#693080"
   id="stop8" />
	<stop
   offset="0.1862"
   style="stop-color:#9D2C77"
   id="stop10" />
	<stop
   offset="0.2371"
   style="stop-color:#B32C62"
   id="stop12" />
	<stop
   offset="0.3084"
   style="stop-color:#CD2D49"
   id="stop14" />
	<stop
   offset="0.3511"
   style="stop-color:#D72D40"
   id="stop16" />
	<stop
   offset="0.4988"
   style="stop-color:#DF232B"
   id="stop18" />
	<stop
   offset="0.5957"
   style="stop-color:#E21F23"
   id="stop20" />
	<stop
   offset="0.6237"
   style="stop-color:#E32926"
   id="stop22" />
	<stop
   offset="0.6715"
   style="stop-color:#E4442D"
   id="stop24" />
	<stop
   offset="0.7181"
   style="stop-color:#E66536"
   id="stop26" />
	<stop
   offset="0.7718"
   style="stop-color:#E98E3C"
   id="stop28" />
	<stop
   offset="0.8511"
   style="stop-color:#EED147"
   id="stop30" />
	<stop
   offset="0.8744"
   style="stop-color:#EFD14F"
   id="stop32" />
	<stop
   offset="0.9105"
   style="stop-color:#F0D165"
   id="stop34" />
	<stop
   offset="0.9255"
   style="stop-color:#F1D170"
   id="stop36" />
	<stop
   offset="0.95"
   style="stop-color:#F4D565"
   id="stop38" />
	<stop
   offset="0.9926"
   style="stop-color:#FDE149"
   id="stop40" />
	<stop
   offset="1"
   style="stop-color:#FFE343"
   id="stop42" />
</linearGradient>
<path
   class="st0"
   d="m 258.6,126.1 c -11.6,8.4 -25.7,13.2 -40.5,13.2 -11.7,0 -23.2,-3 -33.5,-8.8 -33,-18.5 -44.7,-60.4 -26.2,-93.4 12.1,-21.6 35,-35 59.8,-35 11.7,0 23.3,3 33.5,8.8 2.4,1.3 4.6,2.8 6.8,4.3 v 5.5 c -2.8,-2.2 -5.8,-4.3 -8.9,-6 -9.6,-5.4 -20.4,-8.2 -31.4,-8.2 -23.2,0 -44.7,12.6 -56.1,32.8 -17.3,30.9 -6.3,70.1 24.6,87.5 9.6,5.4 20.4,8.2 31.4,8.2 15,0 29.2,-5.2 40.5,-14.3 z"
   id="path45"
   style="fill:url(#SVGID_1_)" />
<linearGradient
   id="SVGID_2_"
   gradientUnits="userSpaceOnUse"
   x1="14084.141"
   y1="-9677.3984"
   x2="13953.398"
   y2="-9718.835"
   gradientTransform="matrix(-0.2864,0.9581,0.9581,0.2864,13361.879,-10583.477)">
	<stop
   offset="0"
   style="stop-color:#35348A"
   id="stop47" />
	<stop
   offset="3.629284e-02"
   style="stop-color:#433387"
   id="stop49" />
	<stop
   offset="0.1054"
   style="stop-color:#693080"
   id="stop51" />
	<stop
   offset="0.1862"
   style="stop-color:#9D2C77"
   id="stop53" />
	<stop
   offset="0.2371"
   style="stop-color:#B32C62"
   id="stop55" />
	<stop
   offset="0.3084"
   style="stop-color:#CD2D49"
   id="stop57" />
	<stop
   offset="0.3511"
   style="stop-color:#D72D40"
   id="stop59" />
	<stop
   offset="0.4988"
   style="stop-color:#DF232B"
   id="stop61" />
	<stop
   offset="0.5957"
   style="stop-color:#E21F23"
   id="stop63" />
	<stop
   offset="0.6237"
   style="stop-color:#E32926"
   id="stop65" />
	<stop
   offset="0.6715"
   style="stop-color:#E4442D"
   id="stop67" />
	<stop
   offset="0.7181"
   style="stop-color:#E66536"
   id="stop69" />
	<stop
   offset="0.7718"
   style="stop-color:#E98E3C"
   id="stop71" />
	<stop
   offset="0.8511"
   style="stop-color:#EED147"
   id="stop73" />
	<stop
   offset="0.8744"
   style="stop-color:#EFD14F"
   id="stop75" />
	<stop
   offset="0.9105"
   style="stop-color:#F0D165"
   id="stop77" />
	<stop
   offset="0.9255"
   style="stop-color:#F1D170"
   id="stop79" />
	<stop
   offset="0.95"
   style="stop-color:#F4D565"
   id="stop81" />
	<stop
   offset="0.9926"
   style="stop-color:#FDE149"
   id="stop83" />
	<stop
   offset="1"
   style="stop-color:#FFE343"
   id="stop85" />
</linearGradient>
<path
   class="st1"
   d="M 0,16.8 C 2.1,15.1 4.4,13.5 6.8,12.1 17.6,5.5 29.9,2 42.5,2 c 24.1,0 46,12.3 58.6,32.8 19.7,32.3 9.5,74.5 -22.8,94.3 -10.8,6.6 -23.1,10.1 -35.7,10.1 0,0 0,0 0,0 -15.8,0 -30.6,-5.3 -42.5,-14.7 v -5.7 c 11.5,10.2 26.5,16 42.5,16 v 0 c 11.8,0 23.3,-3.3 33.4,-9.4 C 106.2,106.9 115.8,67.3 97.3,37.1 85.6,17.8 65.1,6.3 42.5,6.3 30.7,6.3 19.2,9.6 9.1,15.7 5.8,17.7 2.8,19.9 0,22.4 Z"
   id="path88"
   style="fill:url(#SVGID_2_)" />
<linearGradient
   id="SVGID_3_"
   gradientUnits="userSpaceOnUse"
   x1="6701.4819"
   y1="1230.9697"
   x2="6566.6001"
   y2="1188.222"
   gradientTransform="matrix(0.3215,0.9469,-0.9469,0.3215,-857.4031,-6599.9111)">
	<stop
   offset="0"
   style="stop-color:#35348A"
   id="stop90" />
	<stop
   offset="3.629284e-02"
   style="stop-color:#433387"
   id="stop92" />
	<stop
   offset="0.1054"
   style="stop-color:#693080"
   id="stop94" />
	<stop
   offset="0.1862"
   style="stop-color:#9D2C77"
   id="stop96" />
	<stop
   offset="0.2371"
   style="stop-color:#B32C62"
   id="stop98" />
	<stop
   offset="0.3084"
   style="stop-color:#CD2D49"
   id="stop100" />
	<stop
   offset="0.3511"
   style="stop-color:#D72D40"
   id="stop102" />
	<stop
   offset="0.4988"
   style="stop-color:#DF232B"
   id="stop104" />
	<stop
   offset="0.5957"
   style="stop-color:#E21F23"
   id="stop106" />
	<stop
   offset="0.6237"
   style="stop-color:#E32926"
   id="stop108" />
	<stop
   offset="0.6715"
   style="stop-color:#E4442D"
   id="stop110" />
	<stop
   offset="0.7181"
   style="stop-color:#E66536"
   id="stop112" />
	<stop
   offset="0.7718"
   style="stop-color:#E98E3C"
   id="stop114" />
	<stop
   offset="0.8511"
   style="stop-color:#EED147"
   id="stop116" />
	<stop
   offset="0.8744"
   style="stop-color:#EFD14F"
   id="stop118" />
	<stop
   offset="0.9105"
   style="stop-color:#F0D165"
   id="stop120" />
	<stop
   offset="0.9255"
   style="stop-color:#F1D170"
   id="stop122" />
	<stop
   offset="0.95"
   style="stop-color:#F4D565"
   id="stop124" />
	<stop
   offset="0.9926"
   style="stop-color:#FDE149"
   id="stop126" />
	<stop
   offset="1"
   style="stop-color:#FFE343"
   id="stop128" />
</linearGradient>
<path
   class="st2"
   d="m 130,141.5 c -12,0 -24,-3.1 -34.6,-9.1 C 79,123.2 67.1,108.1 62,89.9 56.9,71.7 59.2,52.6 68.4,36.1 80.9,13.8 104.6,0 130.1,0 c 12,0 24,3.1 34.5,9.1 16.5,9.2 28.4,24.4 33.5,42.6 5.1,18.2 2.8,37.3 -6.4,53.8 -12.5,22.2 -36.1,36 -61.7,36 z M 130.1,8.7 c -22.5,0 -43.2,12.1 -54.2,31.7 -8.1,14.5 -10.1,31.2 -5.6,47.2 4.5,16 14.9,29.2 29.4,37.3 9.3,5.2 19.7,7.9 30.3,7.9 22.4,0 43.2,-12.1 54.2,-31.7 8.1,-14.5 10.1,-31.2 5.6,-47.2 -4.5,-16 -14.9,-29.2 -29.4,-37.3 -9.2,-5.2 -19.7,-7.9 -30.3,-7.9 z"
   id="path131"
   style="fill:url(#SVGID_3_)" />
</svg>
