<svg xmlns="http://www.w3.org/2000/svg" width="37.045" height="50.968" viewBox="0 0 37.045 50.968">
  <g id="Groupe_721" data-name="Groupe 721" transform="translate(0.499 0.51)">
    <path id="Tracé_26" data-name="Tracé 26" d="M189.844,998.056a11.146,11.146,0,0,1-1.471-.471,5.373,5.373,0,0,1-3.267-5.165q-.04-8.73,0-17.462a5.3,5.3,0,0,1,2.682-4.878,15.523,15.523,0,0,1,2.077-.84c0-.109,0-.3,0-.495.021-2.747-.041-5.5.084-8.24a12.361,12.361,0,0,1,3.988-8.632,12.872,12.872,0,0,1,12.889-3.238,12.634,12.634,0,0,1,7.394,5.554,13.4,13.4,0,0,1,2.133,7.53q0,3.512,0,7.024v.5a15.242,15.242,0,0,1,2.035.813,5.352,5.352,0,0,1,2.734,4.949q.028,8.682,0,17.364a5.455,5.455,0,0,1-4.617,5.615.484.484,0,0,0-.124.07Zm13.311-26.572c-4.113,0-8.226-.008-12.34,0a3.367,3.367,0,0,0-3.6,3.6q-.008,8.633,0,17.266a3.349,3.349,0,0,0,3.53,3.568q12.413.013,24.827,0A3.339,3.339,0,0,0,219.1,992.4q.016-8.682-.011-17.363a4,4,0,0,0-.354-1.645,3.3,3.3,0,0,0-3.286-1.909C211.35,971.491,207.252,971.484,203.155,971.484Zm6.589-2.141c.011-.145.025-.242.025-.338,0-2.519.006-5.037,0-7.556a8.263,8.263,0,0,0-.113-1.307,6.639,6.639,0,0,0-13.172.816c-.075,2.711-.03,5.426-.035,8.139a1.461,1.461,0,0,0,.042.246Zm-15.428-.005v-.55c0-2.373.007-4.746,0-7.119a9.809,9.809,0,0,1,.6-3.481,8.749,8.749,0,0,1,11.893-4.838,8.651,8.651,0,0,1,5.072,8.181c.041,2.421.008,4.843.008,7.264v.53H214.2c.011-.1.022-.168.022-.232,0-2.568.022-5.136-.006-7.7a11.243,11.243,0,0,0-3.174-7.84,11.039,11.039,0,0,0-13.555-1.787,11.15,11.15,0,0,0-5.5,9.923c-.023,2.405,0,4.81,0,7.216,0,.14.017.281.027.435Z" transform="translate(-185.088 -948.098)" stroke="#000" stroke-miterlimit="10" stroke-width="1"/>
  </g>
</svg>
