<svg xmlns="http://www.w3.org/2000/svg" viewBox="0 0 227.08 513.28">
	<defs>
		<style>.cls-1{fill:#fff;fill-rule:evenodd;}</style>
	</defs>
		<g id="Calque_2" data-name="Calque 2"><g id="Calque_1-2" data-name="Calque 1">
			<path class="cls-1" d="M19.79,0A17.9,17.9,0,0,0,5.87,6.64,25.78,25.78,0,0,0,0,23.16,25.93,25.93,0,0,0,5.66,39.79L180.54,256.67,5.66,473.55h0A26.73,26.73,0,0,0,6,506.73a17.82,17.82,0,0,0,14,6.54A18.18,18.18,0,0,0,33.67,506L221.6,272.89a26.76,26.76,0,0,0,0-32.45L33.67,7.36A18.2,18.2,0,0,0,19.79,0Z"/></g></g></svg>