<svg xmlns="http://www.w3.org/2000/svg" viewBox="0 0 454.15 513.28"><defs><style>.cls-1{fill:#fff;fill-rule:evenodd;}</style></defs><g id="Calque_2" data-name="Calque 2"><g id="Calque_1-2" data-name="Calque 1"><path class="cls-1" d="M246.86,0a17.91,17.91,0,0,0-13.92,6.64,25.83,25.83,0,0,0-5.86,16.52,25.93,25.93,0,0,0,5.66,16.63L407.61,256.67,232.74,473.55h0a26.71,26.71,0,0,0,.32,33.19,17.83,17.83,0,0,0,14,6.54,18.18,18.18,0,0,0,13.7-7.3L448.68,272.89a26.8,26.8,0,0,0,0-32.45L260.74,7.36A18.17,18.17,0,0,0,246.86,0Z"/><path class="cls-1" d="M19.79,0A17.9,17.9,0,0,0,5.87,6.64,25.78,25.78,0,0,0,0,23.16,25.93,25.93,0,0,0,5.66,39.79L180.54,256.67,5.66,473.55h0A26.73,26.73,0,0,0,6,506.73a17.82,17.82,0,0,0,14,6.54A18.18,18.18,0,0,0,33.67,506L221.6,272.89a26.76,26.76,0,0,0,0-32.45L33.67,7.36A18.2,18.2,0,0,0,19.79,0Z"/></g></g></svg>