<?xml version="1.0" encoding="utf-8"?>
<!-- Generator: Adobe Illustrator 18.0.0, SVG Export Plug-In . SVG Version: 6.00 Build 0)  -->
<!DOCTYPE svg PUBLIC "-//W3C//DTD SVG 1.1//EN" "http://www.w3.org/Graphics/SVG/1.1/DTD/svg11.dtd">
<svg version="1.1" id="Calque_1" xmlns="http://www.w3.org/2000/svg" xmlns:xlink="http://www.w3.org/1999/xlink" x="0px" y="0px"
	 viewBox="12.1 12 66.2 66" enable-background="new 12.1 12 66.2 66" xml:space="preserve">
<g>
	<path d="M21.2,48.8c-1.6,0-3.1,0-4.6,0c-1.8-0.1-3.2-0.9-4-2.5c-0.8-1.5-0.7-3.1,0.2-4.5c0.2-0.4,0.5-0.7,0.9-1
		c9.4-9.1,18.7-18.2,28.1-27.3c2.1-2.1,4.6-2.1,6.8,0c2.8,2.7,5.7,5.5,8.6,8.4c1.2-1.8,3-1.6,4.7-1.5c1.2,0,2.5,0,3.7,0
		c2.1,0,3.5,1.4,3.5,3.5c0,3,0,5.9,0,8.9c0,0.5,0.2,1,0.6,1.4c2.4,2.4,4.9,4.7,7.2,7.1c2.4,2.4,1.4,6.5-1.8,7.4
		c-0.9,0.3-2,0.2-3,0.2c-1,0-1.9,0-3,0c0,0.4,0,0.8,0,1.1c0,7.3,0,14.6,0,21.9c0,3.2-1.8,5.5-4.8,6.1C64,78,63.6,78,63.3,78
		c-3,0-5.9,0-8.9,0c-1.2,0-1.6-0.4-1.6-1.6c0-5.2-0.1-10.4,0-15.6c0.1-3.6-2.6-6.5-6.3-6.3c-1.4,0.1-2.9,0-4.3,0.2
		c-2.6,0.4-4.6,2.8-4.6,5.4c0,5.3,0,10.7,0,16c0,1.6-0.3,1.9-2,1.9c-2.8,0-5.5,0-8.3,0c-3.7,0-6.2-2.5-6.2-6.2c0-7.3,0-14.5,0-21.8
		C21.2,49.7,21.2,49.3,21.2,48.8z M35.1,75.6c0-0.4,0-0.8,0-1.1c0-4.6,0-9.2,0-13.8c0-4.5,2.7-7.9,7-8.5c1.7-0.3,3.5-0.1,5.3-0.1
		c0.8,0,1.6,0.2,2.3,0.4c3.5,1.2,5.6,4.3,5.6,8.2c0,4.6,0,9.2,0,13.8c0,0.3,0,0.7,0,1.1c2.6,0,5,0,7.5,0c2.5,0,3.8-1.4,3.8-3.9
		c0-7.9,0-15.8,0-23.6c0-1.3,0.4-1.7,1.7-1.7c1.6,0,3.3,0,4.9,0c1,0,1.9-0.3,2.3-1.3c0.4-1-0.1-1.8-0.8-2.5c-2.5-2.4-5-4.8-7.4-7.2
		c-0.5-0.5-0.7-1-0.7-1.8c0-3.1,0-6.3,0-9.4c0-1-0.3-1.3-1.3-1.3c-1.7,0-3.4,0-5.1,0c-0.7,0-1.2,0.3-1.2,1.1c0,0.7-0.1,1.3-0.9,1.6
		c-0.8,0.3-1.2-0.2-1.7-0.7c-3.3-3.2-6.5-6.3-9.8-9.5c-1.2-1.1-2.1-1.1-3.3,0c-1.6,1.5-3.2,3.1-4.8,4.7C31,27.5,23.2,35.1,15.5,42.6
		c-0.4,0.4-0.8,0.9-0.9,1.5c-0.2,1.3,0.7,2.2,2.2,2.3c1.8,0,3.6,0,5.4,0c1,0,1.4,0.5,1.5,1.5c0,0.3,0,0.5,0,0.8c0,7.8,0,15.6,0,23.4
		c0,2,1.2,3.3,3,3.6c0.4,0.1,0.8,0,1.2,0C30.3,75.6,32.6,75.6,35.1,75.6z"/>
</g>
</svg>
