<svg xmlns="http://www.w3.org/2000/svg" viewBox="0 0 492.91 166.24"><defs><style>.cls-1{fill:#fff;}</style></defs><g id="Calque_2" data-name="Calque 2"><g id="Calque_1-2" data-name="Calque 1"><path class="cls-1" d="M479.8,70.24H44.73L92.42,22.38A13.12,13.12,0,1,0,73.83,3.86l-70,70.21s0,0,0,0h0a14.42,14.42,0,0,0-1.61,2c-.11.18-.19.37-.3.55A15.39,15.39,0,0,0,1,78.33c-.1.25-.14.52-.23.77a13.59,13.59,0,0,0-.51,1.68,14.89,14.89,0,0,0-.19,1.91c0,.22-.07.44-.07.67H0a10.51,10.51,0,0,0,.73,4.11c.1.3.16.63.29.92a11.89,11.89,0,0,0,.9,1.69c.11.19.18.39.3.57a13.52,13.52,0,0,0,1.63,2h0l70,69.75a13.12,13.12,0,1,0,18.52-18.59L44.88,96.49H479.79a13.13,13.13,0,0,0,0-26.25Z"/></g></g></svg>