<svg id="Groupe_718" data-name="Groupe 718" xmlns="http://www.w3.org/2000/svg" width="67.919" height="55.076" viewBox="0 0 67.919 55.076">
  <path id="Tracé_20" data-name="Tracé 20" d="M43.511,946.075c.585-1.694,1.825-2.223,3.547-2.221q30.436.041,60.873.019a8.85,8.85,0,0,1,1.058.054,2.713,2.713,0,0,1,2.429,2.56c.017.242.012.486.012.729q0,20.49,0,40.979c0,2.285-1.039,3.331-3.31,3.335-.768,0-1.535,0-2.415,0,.472.991.888,1.885,1.322,2.771a1.332,1.332,0,0,1,0,1.551,1.315,1.315,0,0,1-1.444.387c-.366-.079-.742-.113-1.113-.169-1.314-.2-1.314-.2-1.984.9-.218.358-.444.713-.651,1.077a1.357,1.357,0,0,1-1.288.874c-.651-.039-.93-.5-1.176-1.024-.8-1.7-1.612-3.386-2.471-5.184-.136.254-.238.428-.324.61-.715,1.493-1.432,2.985-2.137,4.482-.262.556-.531,1.094-1.249,1.12s-1.033-.491-1.341-1.02c-.289-.5-.634-.964-.879-1.48a.792.792,0,0,0-1.052-.481c-.623.142-1.265.2-1.894.316a1.219,1.219,0,0,1-1.3-.438,1.233,1.233,0,0,1-.054-1.375q.532-1.1,1.054-2.212c.092-.194.171-.394.307-.71h-.92q-20.026,0-40.051.017c-1.72,0-2.961-.53-3.543-2.227Zm60.761,42.37c.407,1.088.407,1.088,1.5,1.088q1.16,0,2.321,0c1.179,0,1.349-.17,1.349-1.334q0-20.49,0-40.98c0-1.184-.161-1.349-1.331-1.349H46.837c-1.175,0-1.336.165-1.336,1.344q0,20.491,0,40.981c0,.2-.066.443.024.587a1.945,1.945,0,0,0,.67.7,1.982,1.982,0,0,0,.848.054H88.091c1.056,0,1.056,0,1.365-1.105a3.691,3.691,0,0,1-2.077-3.618,2.681,2.681,0,0,0-.408-1.231,3.667,3.667,0,0,1,0-3.664,3.839,3.839,0,0,0,.417-1.562,3.685,3.685,0,0,1,1.8-3.128,3.963,3.963,0,0,0,1.147-1.138,3.793,3.793,0,0,1,3.176-1.846,4.452,4.452,0,0,0,1.619-.448,3.784,3.784,0,0,1,3.5-.01,4.821,4.821,0,0,0,1.682.458,3.788,3.788,0,0,1,3.118,1.831,3.622,3.622,0,0,0,1.085,1.107,3.755,3.755,0,0,1,1.886,3.287,3.164,3.164,0,0,0,.361,1.373,3.667,3.667,0,0,1-.014,3.84,2.323,2.323,0,0,0-.342,1.112A3.761,3.761,0,0,1,104.272,988.445Zm-7.425,1.774a3.666,3.666,0,0,0,.806-.267,4.376,4.376,0,0,1,2.571-.713,1.8,1.8,0,0,0,1.527-.877,8.865,8.865,0,0,1,1.689-1.706,2.239,2.239,0,0,0,.974-1.758,6.428,6.428,0,0,1,.569-2.129,2.161,2.161,0,0,0-.017-2.062,5.855,5.855,0,0,1-.55-2.066,2.222,2.222,0,0,0-1.062-1.842,6.442,6.442,0,0,1-1.55-1.57,1.881,1.881,0,0,0-1.677-.977,3.949,3.949,0,0,1-2.326-.623,1.586,1.586,0,0,0-1.809-.014,4.024,4.024,0,0,1-2.388.64,1.885,1.885,0,0,0-1.629.945,8.414,8.414,0,0,1-1.652,1.65,2.18,2.18,0,0,0-.959,1.693,6.892,6.892,0,0,1-.585,2.193,2.214,2.214,0,0,0-.019,2.007,7.64,7.64,0,0,1,.6,2.254,2.17,2.17,0,0,0,.929,1.641,8.367,8.367,0,0,1,1.659,1.644,2.24,2.24,0,0,0,1.749.99,11.89,11.89,0,0,1,2.2.581C96.231,989.95,96.545,990.1,96.847,990.22Zm-7.792,3.86c.569-.092.98-.148,1.388-.229a1.462,1.462,0,0,1,1.764.809c.236.453.539.872.86,1.383l2.1-4.4a4.716,4.716,0,0,0-1.127-.361,4.271,4.271,0,0,1-3.122-1.107Zm15.651-.006-1.863-3.889a4.084,4.084,0,0,1-2.912,1.074,5.883,5.883,0,0,0-1.344.373l2.118,4.422c.369-.6.672-1.087.967-1.577a1.247,1.247,0,0,1,1.335-.655C103.527,993.894,104.047,993.975,104.706,994.073Z" transform="translate(-43.511 -943.854)"/>
  <path id="Tracé_21" data-name="Tracé 21" d="M107.808,958.86c-2.731-.643-3.6-1.472-4.971-4.7H58.112a5.834,5.834,0,0,1-4.671,4.662v24.337a5.857,5.857,0,0,1,4.667,4.686h.77q13.663,0,27.325,0a3.517,3.517,0,0,1,.79.048.911.911,0,0,1,.778,1,.928.928,0,0,1-.875.922,4,4,0,0,1-.6.018H57.915c-1.258,0-1.549-.242-1.77-1.465a3.733,3.733,0,0,0-3.278-3.243c-1.17-.215-1.435-.532-1.435-1.735q0-12.4,0-24.805c0-1.2.265-1.513,1.44-1.73a3.733,3.733,0,0,0,3.287-3.315c.2-1.108.525-1.395,1.627-1.395q22.717,0,45.432,0c1.062,0,1.427.309,1.618,1.34a3.717,3.717,0,0,0,3.617,3.412c.986.127,1.343.52,1.344,1.53q.006,8.523,0,17.045c0,.8-.353,1.232-.971,1.245-.648.013-1.017-.432-1.017-1.266q0-7.892,0-15.785Z" transform="translate(-46.656 -947.147)"/>
  <path id="Tracé_22" data-name="Tracé 22" d="M133.994,1002.663a6.175,6.175,0,1,1-6.169-6.215A6.2,6.2,0,0,1,133.994,1002.663Zm-1.99-.01a4.2,4.2,0,0,0-4.138-4.214,4.189,4.189,0,1,0-.04,8.379A4.183,4.183,0,0,0,132,1002.653Z" transform="translate(-74.533 -964.736)"/>
</svg>
