<svg id="Groupe_719" data-name="Groupe 719" xmlns="http://www.w3.org/2000/svg" width="34.236" height="51.149" viewBox="0 0 34.236 51.149">
  <path id="Tracé_23" data-name="Tracé 23" d="M437.735,971.465a22.4,22.4,0,0,0-8.354-13.815,22.088,22.088,0,0,0-10.888-4.6c-.566-.076-1.134-.128-1.716-.181l-.262-.025V951.73c0-.925,0-1.849.006-2.775a1.772,1.772,0,0,0-1.022-1.789l-.12-.055h-.787l-2.526,1.515q-3.612,2.167-7.223,4.335a1.679,1.679,0,0,0-.968,1.424,1.657,1.657,0,0,0,.951,1.409q4.594,2.762,9.193,5.515a1.533,1.533,0,0,0,2.5-1.4c0-.932,0-1.863,0-2.8v-1.114a19.586,19.586,0,0,1,18.307,22.092,19.605,19.605,0,0,1-17.545,16.938c-.331.033-.663.055-1,.077-.4.026-.8.052-1.194.1a1.4,1.4,0,0,0-1.25,1.412,1.481,1.481,0,0,0,.387,1.156,1.793,1.793,0,0,0,1.361.495h.052a23.089,23.089,0,0,0,9.248-2.084A22.83,22.83,0,0,0,437.735,971.465Zm-24.282-20.172v6.175l-5.147-3.087Z" transform="translate(-403.874 -947.111)"/>
</svg>
