<?xml version="1.0" encoding="iso-8859-1"?>
<!-- Generator: Adobe Illustrator 19.0.0, SVG Export Plug-In . SVG Version: 6.00 Build 0)  -->
<svg version="1.1" id="Capa_1" xmlns="http://www.w3.org/2000/svg" xmlns:xlink="http://www.w3.org/1999/xlink" x="0px" y="0px"
	 viewBox="0 0 512 512" style="enable-background:new 0 0 512 512;" xml:space="preserve">
<g>
	<g>
		<g>
			<path d="M256,0c-4.531,0-8.563,2.865-10.063,7.135c-1.5,4.271-0.135,9.031,3.396,11.865l53.333,42.667
				c4.625,3.708,11.323,2.917,15-1.667c3.677-4.604,2.927-11.313-1.667-15l-26.635-21.302
				C403.01,39.948,490.667,137.927,490.667,256c0,105.677-71.323,198.74-173.448,226.302c-5.688,1.542-9.052,7.396-7.521,13.083
				c1.292,4.76,5.594,7.885,10.292,7.885c0.927,0,1.865-0.115,2.792-0.365C434.188,472.823,512,371.292,512,256
				C512,114.844,397.156,0,256,0z"/>
			<path d="M262.667,493l-53.333-42.667c-4.604-3.688-11.302-2.896-15,1.667c-3.677,4.604-2.927,11.313,1.667,15l26.636,21.302
				C108.99,472.052,21.333,374.073,21.333,256c0-105.677,71.323-198.74,173.448-226.302c5.688-1.542,9.052-7.396,7.521-13.083
				c-1.531-5.698-7.438-9.021-13.083-7.521C77.813,39.177,0,140.708,0,256c0,141.156,114.844,256,256,256
				c4.531,0,8.563-2.865,10.063-7.135C267.563,500.594,266.198,495.833,262.667,493z"/>
			<path d="M405.333,320V213.333c0-23.531-19.135-42.667-42.667-42.667H149.333c-23.531,0-42.667,19.135-42.667,42.667V320
				c0,23.531,19.135,42.667,42.667,42.667h54.885c16.271,0,30.896-9.042,38.167-23.583L256,311.854l13.615,27.229
				c7.271,14.542,21.896,23.583,38.167,23.583h54.885C386.198,362.667,405.333,343.531,405.333,320z M288.698,329.542
				l-13.615-27.219c-3.635-7.281-10.948-11.802-19.083-11.802s-15.448,4.521-19.083,11.792l-13.615,27.229
				c-3.635,7.271-10.948,11.792-19.083,11.792h-54.885C137.573,341.333,128,331.76,128,320V213.333
				c0-11.76,9.573-21.333,21.333-21.333h213.333c11.76,0,21.333,9.573,21.333,21.333V320c0,11.76-9.573,21.333-21.333,21.333
				h-54.885C299.646,341.333,292.333,336.813,288.698,329.542z"/>
			<path d="M325.333,224C304.75,224,288,240.75,288,261.333c0,20.583,16.75,37.333,37.333,37.333
				c20.583,0,37.333-16.75,37.333-37.333C362.667,240.75,345.917,224,325.333,224z M325.333,277.333c-8.823,0-16-7.177-16-16
				c0-8.823,7.177-16,16-16c8.823,0,16,7.177,16,16C341.333,270.156,334.156,277.333,325.333,277.333z"/>
			<path d="M186.667,224c-20.583,0-37.333,16.75-37.333,37.333c0,20.583,16.75,37.333,37.333,37.333
				c20.583,0,37.333-16.75,37.333-37.333C224,240.75,207.25,224,186.667,224z M186.667,277.333c-8.823,0-16-7.177-16-16
				c0-8.823,7.177-16,16-16c8.823,0,16,7.177,16,16C202.667,270.156,195.49,277.333,186.667,277.333z"/>
		</g>
	</g>
</g>
<g>
</g>
<g>
</g>
<g>
</g>
<g>
</g>
<g>
</g>
<g>
</g>
<g>
</g>
<g>
</g>
<g>
</g>
<g>
</g>
<g>
</g>
<g>
</g>
<g>
</g>
<g>
</g>
<g>
</g>
</svg>
