<?xml version="1.0" encoding="iso-8859-1"?>
<!-- Generator: Adobe Illustrator 19.0.0, SVG Export Plug-In . SVG Version: 6.00 Build 0)  -->
<svg version="1.1" id="Capa_1" xmlns="http://www.w3.org/2000/svg" xmlns:xlink="http://www.w3.org/1999/xlink" x="0px" y="0px"
	 viewBox="0 0 512 512" style="enable-background:new 0 0 512 512;" xml:space="preserve">
<g>
	<g>
		<path d="M508.875,280.458L250.292,21.875C236.188,7.771,217.438,0,197.49,0H42.667C19.136,0,0,19.135,0,42.667V197.49
			c0,19.948,7.771,38.698,21.875,52.802l258.583,258.583c2.031,2.031,4.75,3.125,7.542,3.125c0.948,0,1.906-0.125,2.844-0.385
			c3.708-1.031,6.573-3.969,7.5-7.698l41.115-164.458l164.458-41.115c3.729-0.927,6.667-3.792,7.698-7.5
			C512.636,287.146,511.594,283.177,508.875,280.458z M328.084,320.323c-3.823,0.948-6.813,3.938-7.76,7.76l-38.104,152.385
			l-245.26-245.26c-10.073-10.073-15.625-23.469-15.625-37.719V42.667c0-11.76,9.573-21.333,21.333-21.333H197.49
			c14.25,0,27.646,5.552,37.719,15.625l245.26,245.26L328.084,320.323z"/>
	</g>
</g>
<g>
</g>
<g>
</g>
<g>
</g>
<g>
</g>
<g>
</g>
<g>
</g>
<g>
</g>
<g>
</g>
<g>
</g>
<g>
</g>
<g>
</g>
<g>
</g>
<g>
</g>
<g>
</g>
<g>
</g>
</svg>
