<?xml version="1.0" encoding="iso-8859-1"?>
<!-- Generator: Adobe Illustrator 19.0.0, SVG Export Plug-In . SVG Version: 6.00 Build 0)  -->
<svg version="1.1" id="Layer_1" xmlns="http://www.w3.org/2000/svg" xmlns:xlink="http://www.w3.org/1999/xlink" x="0px" y="0px"
	 viewBox="0 0 469.333 469.333" style="enable-background:new 0 0 469.333 469.333;" xml:space="preserve">
<g>
	<g>
		<g>
			<path d="M294.437,254.354c2.927,2.948,7.302,3.875,11.24,2.469c1.51-0.563,2.677-0.823,3.656-0.823
				c5.885,0,10.667,4.781,10.667,10.667c0,0.979-0.26,2.146-0.823,3.656c-1.438,3.906-0.479,8.292,2.469,11.24l7.719,7.719
				c6.031,6.052,14.073,9.385,22.635,9.385s16.604-3.333,22.625-9.375l85.323-85.323c6.052-6.031,9.385-14.073,9.385-22.635
				s-3.333-16.604-9.375-22.625l-7.729-7.729c-2.948-2.958-7.323-3.917-11.24-2.469c-1.51,0.563-2.677,0.823-3.656,0.823
				c-5.885,0-10.667-4.781-10.667-10.667c0-0.979,0.26-2.146,0.823-3.656c1.438-3.906,0.479-8.292-2.469-11.24l-79.458-79.458
				c-2.948-2.958-7.333-3.917-11.24-2.469c-1.51,0.563-2.677,0.823-3.656,0.823C324.781,42.667,320,37.885,320,32
				c0-0.979,0.26-2.146,0.823-3.656c1.438-3.906,0.479-8.292-2.469-11.24l-7.719-7.719C304.604,3.333,296.302,0,288,0
				c-8.302,0-16.604,3.333-22.625,9.375l-85.323,85.323c-6.052,6.031-9.385,14.073-9.385,22.635s3.333,16.604,9.375,22.625
				l7.729,7.729c2.927,2.938,7.302,3.865,11.24,2.469c1.51-0.563,2.677-0.823,3.656-0.823c5.885,0,10.667,4.781,10.667,10.667
				c0,0.979-0.26,2.146-0.823,3.656c-1.438,3.906-0.479,8.292,2.469,11.24l16.816,16.816C149.195,263.286,43.03,365.97,12.5,396.5
				C4.437,404.563,0,415.271,0,426.667c0,23.531,19.135,42.667,42.667,42.667c11.396,0,22.104-4.438,30.167-12.5
				c36.751-36.751,136.935-140.5,205.043-219.04L294.437,254.354z M441.438,170.354l3.448,3.448c2.01,2,3.115,4.677,3.115,7.531
				c0,2.854-1.104,5.531-3.125,7.542l-85.344,85.344c-4,4.021-11.052,4.031-15.073-0.01l-3.438-3.438
				c0.208-1.385,0.313-2.75,0.313-4.104c0-4.914-1.152-9.578-3.141-13.776l85.352-85.352
				C428.887,170.113,434.973,171.335,441.438,170.354z M198.562,128.312l-3.448-3.448c-2.01-2-3.115-4.677-3.115-7.531
				c0-2.854,1.104-5.531,3.125-7.542l85.344-85.344c4-4.021,11.052-4.031,15.073,0.01l3.438,3.438
				c-0.208,1.385-0.313,2.75-0.313,4.104c0,4.917,1.151,9.581,3.138,13.779l-85.374,85.374
				C211.107,128.607,205.039,127.385,198.562,128.312z M231.534,146.216L316.88,60.87c5.339,2.568,11.422,3.788,17.891,2.818
				l70.875,70.875c-0.208,1.385-0.313,2.75-0.313,4.104c0,4.913,1.152,9.577,3.141,13.776l-85.357,85.357
				c-5.341-2.572-11.423-3.794-17.888-2.82l-70.875-70.875c0.208-1.385,0.313-2.75,0.313-4.104
				C234.669,155.076,233.521,150.411,231.534,146.216z M57.75,441.75c-4.031,4.031-9.385,6.25-15.083,6.25
				c-11.76,0-21.333-9.573-21.333-21.333c0-5.698,2.219-11.052,6.25-15.083c30.527-30.527,137.051-133.54,219.339-204.745
				l15.828,15.828C195.029,300.878,94.518,404.982,57.75,441.75z"/>
			<path d="M405.333,362.667H256c-35.292,0-64,28.708-64,64c0,23.531,19.135,42.667,42.667,42.667h192
				c23.531,0,42.667-19.135,42.667-42.667C469.333,391.375,440.625,362.667,405.333,362.667z M426.667,448h-192
				c-11.76,0-21.333-9.573-21.333-21.333C213.333,403.135,232.469,384,256,384h149.333C428.865,384,448,403.135,448,426.667
				C448,438.427,438.427,448,426.667,448z"/>
		</g>
	</g>
</g>
<g>
</g>
<g>
</g>
<g>
</g>
<g>
</g>
<g>
</g>
<g>
</g>
<g>
</g>
<g>
</g>
<g>
</g>
<g>
</g>
<g>
</g>
<g>
</g>
<g>
</g>
<g>
</g>
<g>
</g>
</svg>
