<?xml version="1.0" encoding="iso-8859-1"?>
<!-- Generator: Adobe Illustrator 19.0.0, SVG Export Plug-In . SVG Version: 6.00 Build 0)  -->
<svg version="1.1" id="Layer_1" xmlns="http://www.w3.org/2000/svg" xmlns:xlink="http://www.w3.org/1999/xlink" x="0px" y="0px"
	 viewBox="0 0 512 512" style="enable-background:new 0 0 512 512;" xml:space="preserve">
<g>
	<g>
		<path d="M485.952,108.624c-0.043-0.052-0.987-0.744-1.368-0.926l-224-106.667c-2.896-1.375-6.271-1.375-9.167,0l-224,106.667
			c-3.719,1.771-6.083,5.521-6.083,9.635v277.333c0,4.115,2.365,7.865,6.083,9.635l224,106.667c1.448,0.688,3.021,1.031,4.583,1.031
			c1.562,0,3.135-0.344,4.583-1.031l224-106.667c3.719-1.771,6.083-5.521,6.083-9.635V117.333
			C490.667,113.809,488.84,110.611,485.952,108.624z M256,22.479l199.676,95.089l-39.788,19.895l-200.676-95.56L256,22.479z
			 M190.396,53.72l214.938,102.353v87.219l-7.563,19.021l-21.719-5.896c-5.167-1.448-10.698,1.323-12.708,6.365l-8.25,20.844
			l-13.76-3.76V192c0-4.115-2.365-7.865-6.083-9.635L127.747,83.553L190.396,53.72z M245.333,484.441L42.667,387.927V134.23
			l202.667,96.508V484.441z M256.24,212.296L56.812,117.333l46.117-21.961l201.852,96.12L256.24,212.296z M469.333,387.927
			l-202.667,96.514v-253.41L320,208.173V288c0,4.802,3.219,9.021,7.854,10.292l30.823,8.438c0.938,0.25,1.885,0.375,2.813,0.375
			c4.281,0,8.271-2.594,9.917-6.74l8.26-20.865l21.708,5.896c5.198,1.458,10.698-1.302,12.708-6.354l11.833-29.771
			c0.49-1.25,0.75-2.583,0.75-3.938v-89.406l42.667-21.333V387.927z"/>
	</g>
</g>
<g>
</g>
<g>
</g>
<g>
</g>
<g>
</g>
<g>
</g>
<g>
</g>
<g>
</g>
<g>
</g>
<g>
</g>
<g>
</g>
<g>
</g>
<g>
</g>
<g>
</g>
<g>
</g>
<g>
</g>
</svg>
