<?xml version="1.0" encoding="iso-8859-1"?>
<!-- Generator: Adobe Illustrator 19.0.0, SVG Export Plug-In . SVG Version: 6.00 Build 0)  -->
<svg version="1.1" id="Layer_1" xmlns="http://www.w3.org/2000/svg" xmlns:xlink="http://www.w3.org/1999/xlink" x="0px" y="0px"
	 viewBox="0 0 512 512" style="enable-background:new 0 0 512 512;" xml:space="preserve">
<g>
	<g>
		<g>
			<path d="M494.771,295.688C502.854,284.281,512,271.354,512,256s-9.146-28.281-17.229-39.688
				c-5.292-7.49-10.313-14.563-12.042-21.063c-1.875-6.969-1.063-15.896-0.229-25.344c1.292-14.333,2.625-29.156-4.771-41.938
				c-7.521-12.979-21.75-19.542-34.313-25.323c-8.5-3.927-16.521-7.625-21.479-12.573c-4.958-4.958-8.667-12.99-12.583-21.5
				C403.563,56.021,397,41.781,384.042,34.281c-12.771-7.385-27.563-6.063-41.958-4.792c-9.438,0.854-18.375,1.635-25.333-0.208
				c-6.5-1.74-13.563-6.75-21.063-12.052C284.292,9.156,271.354,0,256,0s-28.292,9.156-39.688,17.229
				c-7.5,5.302-14.563,10.313-21.063,12.052c-6.979,1.865-15.896,1.052-25.333,0.208c-14.313-1.26-29.167-2.615-41.938,4.781
				c-12.979,7.5-19.542,21.74-25.333,34.292c-3.917,8.51-7.625,16.552-12.583,21.5s-12.979,8.656-21.5,12.583
				c-12.542,5.781-26.771,12.344-34.292,25.323c-7.396,12.771-6.063,27.604-4.771,41.938c0.833,9.448,1.646,18.375-0.229,25.333
				c-1.729,6.51-6.75,13.583-12.042,21.073C9.146,227.719,0,240.646,0,256s9.146,28.281,17.229,39.688
				c5.292,7.49,10.313,14.563,12.042,21.063c1.875,6.969,1.063,15.896,0.229,25.344c-1.292,14.333-2.625,29.156,4.771,41.938
				c7.521,12.979,21.75,19.542,34.313,25.323c8.5,3.927,16.521,7.625,21.479,12.573c4.958,4.958,8.667,12.99,12.583,21.5
				c5.792,12.552,12.354,26.792,25.313,34.292c12.771,7.385,27.583,6.063,41.958,4.792c9.438-0.854,18.375-1.646,25.333,0.208
				c6.5,1.74,13.563,6.75,21.063,12.052C227.708,502.844,240.646,512,256,512s28.292-9.156,39.688-17.229
				c7.5-5.302,14.563-10.313,21.063-12.052c6.979-1.865,15.896-1.052,25.333-0.208c14.333,1.292,29.188,2.625,41.938-4.781
				c12.979-7.5,19.542-21.74,25.333-34.292c3.917-8.51,7.625-16.552,12.583-21.5c4.958-4.948,12.979-8.656,21.5-12.583
				c12.542-5.781,26.771-12.344,34.292-25.323c7.396-12.771,6.063-27.604,4.771-41.938c-0.833-9.448-1.646-18.375,0.229-25.333
				C484.458,310.25,489.479,303.177,494.771,295.688z M477.354,283.354c-6.146,8.698-12.521,17.698-15.25,27.896
				c-2.833,10.615-1.813,21.865-0.854,32.75c1.042,11.531,2.021,22.427-1.979,29.354c-4.125,7.115-14.146,11.74-24.771,16.635
				c-9.833,4.531-20,9.219-27.646,16.865s-12.333,17.813-16.875,27.656c-4.896,10.615-9.521,20.635-16.646,24.76
				c-6.896,4.021-17.771,3.042-29.354,1.99c-10.854-0.969-22.125-2-32.729,0.854c-10.208,2.729-19.188,9.094-27.896,15.25
				c-9.646,6.844-18.792,13.302-27.354,13.302s-17.708-6.458-27.354-13.302c-8.708-6.156-17.688-12.521-27.896-15.25
				c-5.208-1.396-10.563-1.854-15.938-1.854c-5.604,0-11.25,0.5-16.813,1c-11.583,1.031-22.458,1.979-29.354-2
				c-7.104-4.125-11.729-14.146-16.625-24.76c-4.542-9.844-9.229-20.01-16.875-27.656C97.5,399.198,87.333,394.51,77.5,389.99
				c-10.604-4.896-20.646-9.521-24.771-16.635c-4-6.938-3.021-17.823-1.979-29.354c0.958-10.885,1.979-22.135-0.854-32.76
				c-2.729-10.188-9.104-19.188-15.25-27.885c-6.854-9.656-13.313-18.792-13.313-27.354s6.458-17.698,13.313-27.354
				c6.146-8.698,12.521-17.698,15.25-27.896c2.833-10.615,1.813-21.865,0.854-32.75c-1.042-11.531-2.021-22.427,1.979-29.354
				c4.125-7.115,14.146-11.74,24.771-16.635c9.833-4.531,20-9.219,27.646-16.865c7.646-7.646,12.333-17.813,16.875-27.656
				c4.896-10.615,9.521-20.635,16.646-24.76c6.875-4.01,17.792-3.031,29.354-1.99c10.833,0.969,22.125,1.99,32.729-0.854
				c10.208-2.729,19.188-9.094,27.896-15.25c9.646-6.844,18.792-13.302,27.354-13.302s17.708,6.458,27.354,13.302
				c8.708,6.156,17.688,12.521,27.896,15.25c10.625,2.844,21.854,1.833,32.75,0.854c11.542-1.031,22.417-2.021,29.354,2
				c7.104,4.125,11.729,14.146,16.625,24.76c4.542,9.844,9.229,20.01,16.875,27.656s17.813,12.333,27.646,16.854
				c10.604,4.896,20.646,9.521,24.771,16.635c4,6.938,3.021,17.823,1.979,29.354c-0.958,10.885-1.979,22.135,0.854,32.76
				c2.729,10.188,9.104,19.188,15.25,27.885c6.854,9.656,13.313,18.792,13.313,27.354S484.208,273.698,477.354,283.354z"/>
			<path d="M278.625,278.625L256,301.26l-15.087-15.09L256,271.083c4.167-4.167,4.167-10.917,0-15.083s-10.917-4.167-15.083,0
				l-15.085,15.085L210.75,256l22.625-22.625c4.167-4.167,4.167-10.917,0-15.083c-4.167-4.167-10.917-4.167-15.083,0l-30.167,30.167
				c-4.167,4.167-4.167,10.917,0,15.083l60.333,60.344c2,2,4.708,3.125,7.542,3.125s5.542-1.125,7.542-3.125l30.167-30.177
				c4.167-4.167,4.167-10.917,0-15.083C289.542,274.458,282.792,274.458,278.625,278.625z"/>
			<path d="M188.125,293.698c-12.542-12.49-32.813-12.438-45.271,0.01l-15.083,15.094c-4.167,4.167-4.167,10.917,0,15.083
				l60.354,60.333c2.083,2.083,4.813,3.125,7.542,3.125c2.729,0,5.458-1.042,7.542-3.125c4.167-4.167,4.167-10.917,0-15.083
				l-52.813-52.792l7.542-7.542c4.146-4.156,10.917-4.167,15.104-0.01l45.25,45.26c4.167,4.167,10.917,4.167,15.083,0
				c4.167-4.167,4.167-10.917,0-15.083L188.125,293.698z"/>
			<path d="M323.875,127.781c-4.167-4.167-10.917-4.167-15.083,0c-4.167,4.167-4.167,10.917,0,15.083l45.271,45.24
				c4.146,4.167,4.146,10.948,0,15.094c-4.146,4.156-10.917,4.167-15.104,0.01l-45.25-45.26c-4.167-4.167-10.917-4.167-15.083,0
				c-2.083,2.083-3.125,4.813-3.125,7.542c0,2.729,1.042,5.458,3.125,7.542l45.25,45.271c2.021,2,3.125,4.677,3.125,7.531
				c0,2.844-1.104,5.521-3.125,7.542c-4.167,4.167-10.917,4.167-15.083,0l-45.25-45.26c-4.167-4.167-10.917-4.167-15.083,0
				c-4.167,4.167-4.167,10.917,0,15.083l45.25,45.26c6.042,6.042,14.083,9.375,22.625,9.375c8.542,0,16.583-3.333,22.625-9.375
				c5.625-5.625,8.896-12.979,9.333-20.865c7.583-0.417,15.063-3.521,20.854-9.313c12.458-12.469,12.458-32.771,0-45.25
				L323.875,127.781z"/>
		</g>
	</g>
</g>
<g>
</g>
<g>
</g>
<g>
</g>
<g>
</g>
<g>
</g>
<g>
</g>
<g>
</g>
<g>
</g>
<g>
</g>
<g>
</g>
<g>
</g>
<g>
</g>
<g>
</g>
<g>
</g>
<g>
</g>
</svg>
