<?xml version="1.0" encoding="iso-8859-1"?>
<!-- Generator: Adobe Illustrator 19.0.0, SVG Export Plug-In . SVG Version: 6.00 Build 0)  -->
<svg version="1.1" id="Layer_1" xmlns="http://www.w3.org/2000/svg" xmlns:xlink="http://www.w3.org/1999/xlink" x="0px" y="0px"
	 viewBox="0 0 512 512" style="enable-background:new 0 0 512 512;" xml:space="preserve">
<g>
	<g>
		<path d="M493.792,94.708l-55.167-55.167c-23.146-23.146-64.771-23.146-87.917,0l-243.5,243.5
			c-14.104,14.104-21.875,32.854-21.875,52.802v26.823c0,23.531,19.135,42.667,42.667,42.667h26.823
			c19.948,0,38.698-7.771,52.802-21.875l215.917-215.917c4.167-4.167,4.167-10.917,0-15.083c-4.167-4.167-10.917-4.167-15.083,0
			L192.542,368.375C182.469,378.448,169.073,384,154.823,384H128c-11.76,0-21.333-9.573-21.333-21.333v-26.823
			c0-14.25,5.552-27.646,15.625-37.719l243.5-243.5c15.208-15.208,42.542-15.208,57.75,0l55.167,55.167
			c7.604,7.604,11.958,18.125,11.958,28.875s-4.354,21.271-11.958,28.875L198.781,447.469
			c-14.104,14.104-32.854,21.865-52.792,21.865H64c-23.531,0-42.667-19.135-42.667-42.667v-81.99
			c0-19.938,7.76-38.688,21.865-52.792L295.542,39.542c4.167-4.167,4.167-10.917,0-15.083c-4.167-4.167-10.917-4.167-15.083,0
			L28.115,276.802C9.99,294.927,0,319.031,0,344.677v81.99c0,35.292,28.708,64,64,64h81.99c25.646,0,49.75-9.99,67.875-28.115
			l279.927-279.927C505.365,171.052,512,155.031,512,138.667C512,122.302,505.365,106.281,493.792,94.708z"/>
	</g>
</g>
<g>
</g>
<g>
</g>
<g>
</g>
<g>
</g>
<g>
</g>
<g>
</g>
<g>
</g>
<g>
</g>
<g>
</g>
<g>
</g>
<g>
</g>
<g>
</g>
<g>
</g>
<g>
</g>
<g>
</g>
</svg>
