<?xml version="1.0" encoding="iso-8859-1"?>
<!-- Generator: Adobe Illustrator 19.0.0, SVG Export Plug-In . SVG Version: 6.00 Build 0)  -->
<svg version="1.1" id="Capa_1" xmlns="http://www.w3.org/2000/svg" xmlns:xlink="http://www.w3.org/1999/xlink" x="0px" y="0px"
	 viewBox="0 0 511.996 511.996" style="enable-background:new 0 0 511.996 511.996;" xml:space="preserve">
<g>
	<g>
		<path d="M458.665,213.329c-9.688,0-18.688,5.604-24.667,15.375c-1.104,1.792-4.167,5.958-8.792,5.958h-3.003l4.357-30.49
			c0.438-3.063-0.479-6.167-2.5-8.5c-2.021-2.333-4.979-3.677-8.063-3.677h-22.777c-1.99-21.895-1.352-47.496,8.893-82.16
			c7.094-4.501,12.271-11.529,14.155-19.788l9.583-41.917c3.583-15.698-5.125-31.687-20.25-37.188l-24.75-9.01
			c-15.188-5.531-32.083,1.167-39.417,15.479l-19.604,38.26c-3.832,7.473-4.383,16.1-1.921,24.061
			c-19.54,43.314-60.458,78.426-87.892,101.835c-4.443,3.802-8.411,7.22-12.051,10.427H95.998c-3.083,0-6.042,1.344-8.063,3.677
			s-2.938,5.438-2.5,8.5l4.357,30.49H86.79c-4.625,0-7.688-4.167-8.771-5.948c-6-9.781-15-15.385-24.687-15.385
			c-17.938,0-32,18.74-32,42.667c0,23.927,14.063,42.667,32,42.667c9.688,0,18.687-5.604,24.667-15.375
			c1.104-1.792,4.167-5.958,8.792-5.958h9.099l28.297,198.031c2.979,20.885,21.146,36.635,42.229,36.635h179.167
			c21.083,0,39.25-15.75,42.229-36.635l28.297-198.031h9.099c4.625,0,7.688,4.167,8.771,5.948c6,9.781,15,15.385,24.688,15.385
			c17.938,0,32-18.74,32-42.667C490.665,232.069,476.602,213.329,458.665,213.329z M59.81,272.131
			c-1.979,3.25-4.417,5.198-6.479,5.198c-4.354,0-10.667-8.313-10.667-21.333c0-13.021,6.313-21.333,10.667-21.333
			c2.063,0,4.5,1.948,6.5,5.208c6.187,10.094,16.271,16.125,26.958,16.125C76.102,255.996,66.019,262.027,59.81,272.131z
			 M340.831,65.402l19.604-38.271c2.438-4.792,8.188-6.979,13.125-5.156l24.75,9.01c5.042,1.833,7.938,7.167,6.75,12.396
			l-9.583,41.917c-0.688,3.031-2.583,5.51-5.292,7c-2.75,1.469-5.813,1.719-8.75,0.656l-34.771-12.656
			c-2.917-1.063-5.146-3.24-6.271-6.135C339.248,71.277,339.415,68.163,340.831,65.402z M334.67,98.032
			c1.517,0.855,3.044,1.702,4.703,2.307l34.771,12.656c1.52,0.555,3.126,0.513,4.693,0.827c-8.292,32.053-8.824,56.733-7.003,78.173
			H252.632C279.089,169.285,313.831,137.678,334.67,98.032z M366.685,472.34c-1.479,10.448-10.563,18.323-21.104,18.323H166.415
			c-10.542,0-19.625-7.875-21.104-18.323l-37.021-259.01h295.417L366.685,472.34z M458.665,277.329c-2.063,0-4.5-1.948-6.5-5.208
			c-6.188-10.094-16.271-16.125-26.958-16.125c10.688,0,20.771-6.031,26.979-16.135c1.979-3.25,4.417-5.198,6.479-5.198
			c4.354,0,10.667,8.313,10.667,21.333C469.331,269.017,463.019,277.329,458.665,277.329z"/>
	</g>
</g>
<g>
</g>
<g>
</g>
<g>
</g>
<g>
</g>
<g>
</g>
<g>
</g>
<g>
</g>
<g>
</g>
<g>
</g>
<g>
</g>
<g>
</g>
<g>
</g>
<g>
</g>
<g>
</g>
<g>
</g>
</svg>
