<?xml version="1.0" encoding="utf-8"?>
<!-- Generator: Adobe Illustrator 18.0.0, SVG Export Plug-In . SVG Version: 6.00 Build 0)  -->
<!DOCTYPE svg PUBLIC "-//W3C//DTD SVG 1.1//EN" "http://www.w3.org/Graphics/SVG/1.1/DTD/svg11.dtd">
<svg version="1.1" id="Calque_1" xmlns="http://www.w3.org/2000/svg" xmlns:xlink="http://www.w3.org/1999/xlink" x="0px" y="0px"
	 viewBox="0 10.5 83 62" enable-background="new 0 10.5 83 62" xml:space="preserve">
<g>
	<path d="M0.2,58.7c0-14.6,0-29.2,0-43.8c0.9-3.1,3-4.1,6-4.1c14.9,0.1,29.9,0,44.8,0c3.3,0,5.3,2,5.3,5.4c0,3.3,0,6.6,0,10
		c0,0.3,0,0.6,0,0.9c0.4,0,0.7,0,1,0c4,0,8,0,12.1,0c2.4,0,4,1,5,3.1c2.9,5.9,5.9,11.8,8.8,17.7c0,3.6,0,7.2,0,10.9
		c-0.5,1.7-1.4,3-3,3.7c-0.2,0.1-0.2,0.4-0.3,0.7c-0.1,2.1-0.8,4-2,5.6c-0.1,0.2-0.2,0.3-0.4,0.6c1.2,0,2.3,0.1,3.4,0
		c1-0.1,1.7,0.3,2.2,1.2c0,0.3,0,0.6,0,1c-0.5,0.9-1.2,1.2-2.2,1.2c-26.2,0-52.4,0-78.6,0c-1,0-1.7-0.3-2.2-1.2c0-0.3,0-0.6,0-1
		c0.5-0.9,1.2-1.2,2.2-1.2c3,0,6,0,9,0c0.3,0,0.6,0,1,0c-1.7-1.9-2.4-4.1-2.5-6.5c-1.7,0-3.3,0-4.9,0c-1.7,0-3.1-0.8-4.1-2.3
		C0.6,59.9,0.4,59.3,0.2,58.7z M3.4,56.3c0,0.5,0,0.9,0,1.2c0,1.4,0.6,2,2,2c1.4,0,2.9,0,4.3,0c0.5,0,0.8-0.2,1-0.7
		c1.8-3.7,4.7-5.8,8.8-5.8c4.1,0,7.1,2,8.9,5.7c0.3,0.5,0.5,0.7,1.1,0.7c7.5,0,15.1,0,22.6,0c0.3,0,0.5,0,0.8,0c0-0.3,0-0.5,0-0.7
		c0-14.2,0-28.4,0-42.6c0-1.5-0.6-2-2.1-2c-15.2,0-30.3,0-45.5,0c-1.5,0-2.1,0.6-2.1,2.1c0,9.8,0,19.6,0,29.4c0,0.3,0,0.6,0,0.9
		c1.6,0,3,0,4.5,0c1.4,0,2,0.6,2,2c0,1.9,0,3.9,0,5.8c0,1.3-0.6,1.9-1.9,1.9C6.5,56.3,5,56.3,3.4,56.3z M79.9,49.8c-0.4,0-0.7,0-1,0
		c-5.8,0-11.7,0-17.5,0c-1.3,0-1.9-0.6-1.9-1.9c0-4.1,0-8.2,0-12.3c0-1.4,0.6-2,2-2c3.4,0,6.7,0,10.1,0c0.3,0,0.5,0,0.9,0
		c-0.4-0.7-0.7-1.4-1-2c-0.4-0.9-1-1.3-2-1.3c-4.1,0-8.3,0-12.4,0c-0.2,0-0.5,0-0.7,0c0,9.7,0,19.4,0,29.1c1.4,0,2.7,0,4,0
		c0.5,0,0.7-0.2,0.9-0.6c1.7-3.6,4.6-5.7,8.5-5.8c4.1-0.2,7.1,1.8,9.1,5.4c0.1,0.2,0.2,0.4,0.5,0.9c0.2-0.6,0.5-1,0.5-1.4
		C79.9,55.2,79.9,52.6,79.9,49.8z M26.9,69.2c12.1,0,24,0,36,0c-1.6-1.9-2.4-4-2.5-6.4c-10.4,0-20.7,0-31.1,0
		C29.3,65.2,28.5,67.3,26.9,69.2z M62.8,46.5c5.4,0,10.7,0,16.1,0c0-0.1-0.1-0.3-0.1-0.3c-1.5-3-3-5.9-4.4-8.9
		c-0.2-0.5-0.5-0.4-0.9-0.4c-3.3,0-6.6,0-9.9,0c-0.2,0-0.5,0-0.7,0C62.8,40.1,62.8,43.3,62.8,46.5z M13.1,62.7
		c0,3.6,2.9,6.5,6.5,6.5c3.5,0,6.4-2.9,6.5-6.4c0-3.6-2.9-6.5-6.5-6.5C16.1,56.2,13.1,59.2,13.1,62.7z M70.2,56.3
		c-3.6,0-6.5,2.9-6.5,6.5c0,3.5,2.9,6.5,6.4,6.5c3.6,0,6.5-2.9,6.6-6.4C76.7,59.2,73.8,56.3,70.2,56.3z M3.5,49.8c0,1.1,0,2.1,0,3.1
		c1.1,0,2.1,0,3.1,0c0-1.1,0-2.1,0-3.1C5.5,49.8,4.5,49.8,3.5,49.8z"/>
	<path d="M34.7,23.8c-3.3,0-6.6,0-9.9,0c-0.5,0-1.1-0.1-1.4-0.4c-0.3-0.4-0.5-1.1-0.5-1.6c0.1-0.7,0.6-1,1.3-1.2c0.3,0,0.5,0,0.8,0
		c6.4,0,12.8,0,19.3,0c0.2,0,0.4,0,0.6,0c1,0.1,1.7,0.8,1.6,1.7c0,0.9-0.7,1.6-1.6,1.6c-1.6,0-3.1,0-4.7,0
		C38.4,23.8,36.5,23.8,34.7,23.8z"/>
	<path d="M37.9,27.1c2.2,0,4.4,0,6.6,0c1.2,0,2,0.7,2,1.7c0,1-0.8,1.6-2,1.6c-4.4,0-8.8,0-13.3,0c-1.2,0-2-0.6-2-1.7
		c0-1,0.8-1.6,1.9-1.6C33.5,27.1,35.7,27.1,37.9,27.1z"/>
	<path d="M19.6,22.2c0,0.9-0.8,1.6-1.7,1.6c-0.9,0-1.6-0.8-1.5-1.6c0-0.9,0.8-1.6,1.7-1.6C18.9,20.6,19.6,21.4,19.6,22.2z"/>
	<path d="M22.9,62.7c0,1.8-1.4,3.2-3.2,3.3c-1.8,0-3.2-1.4-3.3-3.2c0-1.8,1.4-3.2,3.2-3.3C21.4,59.5,22.8,60.9,22.9,62.7z"/>
	<path d="M70.2,66c-1.8,0-3.2-1.5-3.2-3.3c0-1.8,1.5-3.2,3.3-3.2c1.8,0,3.2,1.5,3.2,3.3C73.4,64.5,72,66,70.2,66z"/>
</g>
</svg>
