<?xml version="1.0" encoding="utf-8"?>
<!-- Generator: Adobe Illustrator 18.0.0, SVG Export Plug-In . SVG Version: 6.00 Build 0)  -->
<!DOCTYPE svg PUBLIC "-//W3C//DTD SVG 1.1//EN" "http://www.w3.org/Graphics/SVG/1.1/DTD/svg11.dtd">
<svg version="1.1" id="Calque_1" xmlns="http://www.w3.org/2000/svg" xmlns:xlink="http://www.w3.org/1999/xlink" x="0px" y="0px"
	 viewBox="1.4 7.3 77.2 65.3" enable-background="new 1.4 7.3 77.2 65.3" xml:space="preserve">
<g>
	<path d="M49.2,62.7c0.2,1.2,0.4,2.3,0.7,3.4c0,0.2,0.4,0.4,0.6,0.4c1.4,0,2.9,0,4.3,0c1.2,0,1.6,0.4,1.6,1.6c0,1,0,2.1,0,3.1
		c0,1.1-0.4,1.5-1.5,1.5c-9.8,0-19.7,0-29.5,0c-1,0-1.5-0.5-1.5-1.4c0-1.1,0-2.3,0-3.4c0-0.9,0.5-1.4,1.4-1.4c1.5,0,3,0,4.5,0
		c0.4,0,0.6-0.1,0.7-0.6c0.2-1,0.4-2.1,0.6-3.2c-0.4,0-0.7,0-1,0c-8,0-15.9,0-23.9,0c-3,0-4.8-1.8-4.8-4.8c0-15.1,0-30.3,0-45.4
		c0-3,1.8-4.8,4.8-4.8c22.6,0,45.3,0,67.9,0c3.1,0,4.8,1.8,4.8,4.9c0,15.1,0,30.2,0,45.3c0,3.1-1.8,4.8-4.8,4.8
		c-7.9,0-15.9,0-23.8,0C49.9,62.7,49.6,62.7,49.2,62.7z M76.4,52.6c0-0.2,0-0.4,0-0.6c0-13.2,0-26.4,0-39.6c0-1.6-0.7-2.2-2.3-2.2
		c-22.6,0-45.2,0-67.8,0c-1.7,0-2.4,0.7-2.4,2.4c0,13.1,0,26.2,0,39.3c0,0.3,0,0.5,0,0.8C28.1,52.6,52.2,52.6,76.4,52.6z M76.4,55.2
		c-24.2,0-48.3,0-72.5,0c0,0.8,0,1.6,0,2.4c0,2,0.6,2.6,2.6,2.6c22.5,0,44.9,0,67.4,0c0.3,0,0.5,0,0.8,0c1-0.1,1.7-0.8,1.7-1.8
		C76.4,57.3,76.4,56.3,76.4,55.2z M33,66.3c4.8,0,9.6,0,14.4,0c-0.2-1.1-0.4-2.2-0.7-3.2c0-0.2-0.4-0.4-0.5-0.4c-4,0-8,0-12,0
		c-0.2,0-0.5,0.2-0.5,0.4C33.4,64.1,33.2,65.2,33,66.3z M26.4,70.1c9.2,0,18.3,0,27.4,0c0-0.4,0-0.8,0-1.2c-9.2,0-18.3,0-27.4,0
		C26.4,69.3,26.4,69.7,26.4,70.1z"/>
	<path d="M40.1,58.9c-0.4,0-0.8,0-1.2,0c-0.7-0.1-1.2-0.6-1.2-1.2c0-0.7,0.5-1.2,1.2-1.3c0.9,0,1.7,0,2.6,0c0.7,0,1.2,0.6,1.2,1.2
		c0,0.7-0.5,1.2-1.2,1.3C41,58.9,40.5,58.9,40.1,58.9z"/>
</g>
</svg>
