<?xml version="1.0" encoding="utf-8"?>
<!-- Generator: Adobe Illustrator 18.0.0, SVG Export Plug-In . SVG Version: 6.00 Build 0)  -->
<!DOCTYPE svg PUBLIC "-//W3C//DTD SVG 1.1//EN" "http://www.w3.org/Graphics/SVG/1.1/DTD/svg11.dtd">
<svg version="1.1" id="Calque_1" xmlns="http://www.w3.org/2000/svg" xmlns:xlink="http://www.w3.org/1999/xlink" x="0px" y="0px"
	 viewBox="6.2 0 67.8 80" enable-background="new 6.2 0 67.8 80" xml:space="preserve">
<g>
	<path d="M41.7,0.2c0.8,0.1,1.5,0.2,2.3,0.3c9.7,1.4,16.9,6.5,21.7,14.9c2.2,3.8,3.3,7.9,3.5,12.3c0.4,7.1-1.5,13.4-5.7,19.1
		c-0.4,0.6-0.9,1.2-1.4,1.7c-0.4,0.4-0.4,0.7-0.1,1.2c3.9,6.7,7.8,13.4,11.6,20.1c0.3,0.5,0.6,1,0.2,1.7c-0.6,1-1.1,1.2-2.3,0.8
		c-2.4-1-4.9-1.9-7.3-2.9c-0.7-0.3-1.3-0.5-2.1-0.8c-0.1,0.9-0.3,1.8-0.4,2.7c-0.3,2.3-0.7,4.7-1,7c0,0.3-0.1,0.6-0.2,0.8
		c-0.3,1.1-1.6,1.4-2.4,0.6c-0.2-0.2-0.4-0.5-0.6-0.8c-3.9-6.7-7.8-13.4-11.6-20.1c-0.3-0.5-0.5-0.7-1.1-0.6c-3.2,0.6-6.5,0.6-9.7,0
		c-0.6-0.1-0.8,0.1-1,0.5c-3.9,6.7-7.8,13.4-11.6,20.1c-0.4,0.7-0.8,1.5-1.9,1.4c-1.1-0.2-1.2-1.1-1.3-2c-0.4-3.2-0.9-6.4-1.4-9.7
		c-0.3,0.1-0.6,0.2-0.9,0.3c-2.8,1.1-5.6,2.2-8.3,3.3c-0.2,0.1-0.5,0.2-0.7,0.2c-1.1,0.2-2-0.7-1.7-1.7c0.1-0.3,0.3-0.7,0.5-1
		c3.8-6.6,7.6-13.2,11.5-19.8c0.4-0.7,0.3-1-0.2-1.6c-5.5-6.5-7.9-14.1-6.8-22.5c1.4-11,7.5-18.7,17.5-23.3c2.9-1.3,6-2,9.2-2.2
		c0.2,0,0.4-0.1,0.6-0.1C39.6,0.2,40.7,0.2,41.7,0.2z M66.4,29.2C66.3,14.7,54.7,3.1,40.2,3C25.7,3,14,14.9,14,29.4
		C14,44,25.6,55.5,40.2,55.6C54.6,55.6,66.4,43.6,66.4,29.2z M69.1,68c0,0,0.1-0.1,0.1-0.1c-3.2-5.6-6.5-11.2-9.6-16.6
		c-1.8,1.2-3.4,2.5-5.2,3.5c-1.8,1-3.7,1.8-5.7,2.6c3.2,5.6,6.4,11.2,9.7,16.8c0.5-2.6,0.9-5.1,1.3-7.6c0.2-1.4,1-1.9,2.4-1.4
		c1.9,0.8,3.9,1.5,5.8,2.3C68.3,67.7,68.7,67.8,69.1,68z M20.7,51.2c-3.2,5.5-6.4,11.1-9.7,16.8c0.4-0.2,0.7-0.2,0.9-0.3
		c2.1-0.9,4.3-1.7,6.4-2.6c1.2-0.5,2.1,0,2.3,1.3c0.3,1.7,0.5,3.4,0.8,5.1c0.1,0.8,0.3,1.7,0.4,2.5c0.1,0,0.1,0,0.2,0
		c3.2-5.6,6.4-11.2,9.6-16.8c-2-0.9-3.9-1.6-5.7-2.6C24.2,53.7,22.5,52.4,20.7,51.2z"/>
	<path d="M40.2,52c-12.6,0-22.7-10.2-22.7-22.7c0-12.6,10.1-22.7,22.7-22.7c12.5,0,22.8,10.2,22.7,22.7C62.8,41.9,52.8,52,40.2,52z
		 M20.3,29.3c0,10.9,8.9,19.8,19.8,19.8c11,0,19.9-8.9,19.8-19.9c0-10.9-8.9-19.8-19.8-19.8C29.3,9.4,20.3,18.4,20.3,29.3z"/>
	<path d="M40.4,37.9c-1.6,1.2-3.2,2.3-4.7,3.4c-1.7,1.2-3.8,0.8-4.8-1c-0.4-0.8-0.5-1.6-0.2-2.4c0.5-1.7,1.1-3.3,1.6-5
		c0.2-0.5,0.1-0.8-0.4-1.2c-1.4-1-2.9-2-4.3-3c-1.1-0.8-1.5-2-1.2-3.3c0.3-1.2,1.1-2,2.3-2.3C29,23,29.3,23,29.6,23
		c1.7,0,3.4,0,5.1,0c0.5,0,0.8-0.1,0.9-0.7c0.5-1.7,1-3.4,1.6-5.1c0.6-1.8,2.4-2.6,4.2-1.9c1.1,0.4,1.6,1.3,2,2.3
		c0.5,1.6,1,3.1,1.5,4.7c0.1,0.5,0.4,0.7,0.9,0.7c1.7,0,3.5,0,5.2,0c1.5,0,2.6,0.9,3.1,2.4c0.5,1.5,0.1,2.6-1.2,3.5
		c-1.4,1-2.7,2-4.1,2.9c-0.4,0.3-0.5,0.5-0.3,1c0.6,1.6,1.1,3.2,1.6,4.8c0.5,1.4,0.1,2.8-1,3.7c-1.1,0.9-2.5,1-3.8,0.1
		c-1.4-0.9-2.7-2-4.1-3C40.9,38.3,40.7,38.1,40.4,37.9z M33,25.8c-1,0-2,0-3,0c-0.3,0-0.6,0.2-0.9,0.3c0.2,0.2,0.3,0.5,0.5,0.7
		c1.5,1.2,3,2.4,4.6,3.5c1,0.8,1.1,1,0.7,2.3c-0.6,1.9-1.2,3.8-1.8,5.6c-0.1,0.3,0,0.6,0,0.9c0.3-0.1,0.6-0.1,0.8-0.3
		c1.6-1.2,3.2-2.4,4.9-3.5c1-0.7,1.5-0.7,2.5,0c1.5,1.1,3.1,2.3,4.6,3.4c0.3,0.2,0.7,0.3,1.1,0.5c0-0.4,0-0.8-0.1-1.1
		c-0.6-1.8-1.1-3.6-1.7-5.3c-0.4-1.2-0.2-1.6,0.8-2.3c1.6-1.2,3.3-2.4,4.9-3.6c0.2-0.2,0.4-0.4,0.5-0.6c-0.3-0.1-0.5-0.3-0.8-0.3
		c-2,0-3.9,0-5.9,0c-1.4,0-1.8-0.3-2.2-1.6c-0.6-1.8-1.2-3.6-1.8-5.4c-0.1-0.3-0.3-0.5-0.5-0.8c-0.2,0.3-0.4,0.5-0.5,0.8
		c-0.6,1.8-1.2,3.7-1.8,5.5c-0.4,1.2-0.8,1.5-2,1.5C34.9,25.8,34,25.8,33,25.8z"/>
</g>
</svg>
