<svg id="Groupe_720" data-name="Groupe 720" xmlns="http://www.w3.org/2000/svg" width="52.005" height="39.587" viewBox="0 0 52.005 39.587">
  <path id="Tracé_25" data-name="Tracé 25" d="M337.676,989.549a2.112,2.112,0,0,1-2.311,1.427c-1.412-.041-2.825,0-4.238-.018a.553.553,0,0,0-.627.45,7.181,7.181,0,0,1-13.6,0,.558.558,0,0,0-.629-.447q-4.852.021-9.7,0c-.417,0-.562.154-.69.517a7.119,7.119,0,0,1-6.542,4.8,6.942,6.942,0,0,1-6.746-4.222,1.49,1.49,0,0,0-1.773-1.1c-1.073.075-2.156.036-3.233.011a1.805,1.805,0,1,1-.03-3.606c.873-.029,1.747-.007,2.622-.007h1.707a21.763,21.763,0,0,1,1.825-2.964,7.143,7.143,0,0,1,12.156,2.324.807.807,0,0,0,.933.652q4.657-.035,9.314,0a.674.674,0,0,0,.784-.543,7.171,7.171,0,0,1,13.632.049.6.6,0,0,0,.7.491c.927-.025,1.855-.008,2.862-.008v-.582c0-2.733.009-5.466-.013-8.2a1.567,1.567,0,0,0-.29-.853c-.646-.886-1.347-1.731-2-2.61a.915.915,0,0,0-.831-.409q-6.526.02-13.051.008c-1.59,0-2.233-.641-2.233-2.228q0-5.717,0-11.433V960.3h-.75q-13.5,0-26.994,0a3.872,3.872,0,0,1-.992-.1,1.78,1.78,0,0,1,.282-3.466,6.155,6.155,0,0,1,.724-.032h29c1.709,0,2.327.614,2.328,2.306v1.3h.629c2.212,0,4.425.028,6.637-.012a2.184,2.184,0,0,1,2.208,1.351c1.445,2.93,2.94,5.836,4.384,8.766a15.887,15.887,0,0,0,1.993,3.141c.628.759,1.23,1.54,1.809,2.336a14.457,14.457,0,0,1,.754,1.281Zm-8.3-18.481a1.413,1.413,0,0,0-.06-.21c-1.115-2.223-2.225-4.449-3.363-6.66a.737.737,0,0,0-.556-.292c-1.914-.021-3.829-.014-5.743-.011a3.028,3.028,0,0,0-.371.044v7.13Zm-5.66,14.447a3.584,3.584,0,1,0,3.574,3.593A3.594,3.594,0,0,0,323.72,985.515Zm-24.639,0a3.584,3.584,0,1,0,3.6,3.555A3.584,3.584,0,0,0,299.081,985.515Z" transform="translate(-285.671 -956.698)"/>
</svg>
