<svg xmlns="http://www.w3.org/2000/svg" viewBox="0 0 404.28 238.48"><g id="Calque_2" data-name="Calque 2"><g id="Calque_1-2" data-name="Calque 1"><path d="M155.62,46.22a5.6,5.6,0,0,0,0-11.2H31.5a5.61,5.61,0,0,0,0,11.21Z"/><path d="M404.22,137.47a4.94,4.94,0,0,0-.12-1.15,6,6,0,0,0-.42-1.09,6.5,6.5,0,0,0-.28-.68L369.22,82.22c-.12-.19-.31-.29-.46-.46a4.87,4.87,0,0,0-.67-.69,5,5,0,0,0-1-.67,5.53,5.53,0,0,0-.84-.35A5.66,5.66,0,0,0,365,79.8a4.76,4.76,0,0,0-.52-.1H303.13L311.19,6.2c0-.1,0-.19,0-.3s.06-.19.06-.3a5.4,5.4,0,0,0-.16-.78,5.29,5.29,0,0,0-.22-1.12,7.49,7.49,0,0,0-.46-.89,5.48,5.48,0,0,0-.64-.93,4.93,4.93,0,0,0-.74-.63,5.18,5.18,0,0,0-1-.64,5.23,5.23,0,0,0-1-.31,3.93,3.93,0,0,0-.84-.27c-.11,0-.21,0-.33,0s-.18,0-.28,0H5.6a5.6,5.6,0,0,0,0,11.2H299.38L285,142.68h-200L91.34,84.3h25.44a5.6,5.6,0,0,0,0-11.2H13.22a5.6,5.6,0,0,0,0,11.2H80.07L67,203c0,.11,0,.2,0,.31s-.06.19-.06.3a5.66,5.66,0,0,0,.16.8,6.26,6.26,0,0,0,.22,1.08,9.37,9.37,0,0,0,1.08,1.82,5.59,5.59,0,0,0,.83.7,5,5,0,0,0,.86.58,5.56,5.56,0,0,0,1.07.34,5.2,5.2,0,0,0,.76.25l.61,0h30.58c2,14.68,12.95,26.77,27.59,28.95a31.39,31.39,0,0,0,4.61.34c16.12,0,30.14-12.55,33-29.28h132a35.27,35.27,0,0,0,5.89,15.24A31.88,31.88,0,0,0,328,238.14a31.29,31.29,0,0,0,4.61.34c16.12,0,30.14-12.55,33-29.28h25.34l.12,0,.44,0a5.6,5.6,0,0,0,5.56-5l7.25-66a3.12,3.12,0,0,0-.05-.75ZM301.9,90.89h59.61L392.93,139l-.41,3.69h-96.3ZM386.44,198H365.8a35.07,35.07,0,0,0-5.89-15.25,31.88,31.88,0,0,0-21.7-13.69c-18-2.66-34.52,10.61-37.63,28.94H290.14L295,153.88h96.31ZM283.72,153.87,278.88,198H168.63c-2-14.68-12.95-26.77-27.59-28.94-17.9-2.66-34.52,10.61-37.63,28.94H78.87l4.84-44.11ZM132.43,227.05c-11.9-1.77-20-13.73-18.09-26.67,1.73-11.68,11.22-20.48,22.08-20.48a21.57,21.57,0,0,1,3,.22c11.9,1.77,20,13.73,18.09,26.67-1.89,12.73-13,22.06-25.06,20.26ZM354.66,206.8c-1.89,12.72-13.08,22-25.06,20.25a20.81,20.81,0,0,1-14.12-9,24.63,24.63,0,0,1-4-17.69c1.74-11.67,11.23-20.47,22.08-20.47a21.46,21.46,0,0,1,3,.22,20.83,20.83,0,0,1,14.13,9,24.54,24.54,0,0,1,4,17.68Z"/></g></g></svg>