<?xml version="1.0" encoding="UTF-8"?>
<!-- Svg Vector Icons : http://www.onlinewebfonts.com/icon -->
<!DOCTYPE svg PUBLIC "-//W3C//DTD SVG 1.1//EN" "http://www.w3.org/Graphics/SVG/1.1/DTD/svg11.dtd">
<svg version="1.1" xmlns="http://www.w3.org/2000/svg" xmlns:xlink="http://www.w3.org/1999/xlink" x="0px" y="0px" viewBox="0 0 256 256" enable-background="new 0 0 256 256" xml:space="preserve">
<metadata> Svg Vector Icons : http://www.onlinewebfonts.com/icon </metadata>
<g><g><g><path stroke-width="2" fill-opacity="0" stroke="#000000" d="M10,79.8v32h59.2h59.2l-4.2-4.3c-3.5-3.4-4.6-5-6-7.9c-1.6-3.2-1.8-4.2-2-7.6c-0.1-3.2,0-4.4,0.9-6.7c2.6-6.9,10.6-11.2,20.7-11.3c7.9,0,13.9,2.5,20.3,8.6l4.1,3.9V67.2V47.8H86.1H10V79.8z"/><path stroke-width="2" fill-opacity="0" stroke="#000000" d="M176.9,65.3v17.5l2.9-2.3c6.3-4.9,11.8-6.7,19.5-6.4c12,0.6,19.6,6.5,20.4,15.8c0.5,6.5-3.9,14.8-10.6,20.1l-2.3,1.8h19.6H246v-32v-32h-34.6h-34.6V65.3z"/><path stroke-width="2" fill-opacity="0" stroke="#000000" d="M132.8,89.5c-1,0.4-1.9,0.7-1.9,0.7c-0.6,0,0.1,2.5,1.2,4.2c3.7,5.8,14.6,11.4,22.4,11.5c0.9,0,1.7-0.1,1.7-0.3c0-0.2-0.9-2-1.9-4c-2.4-4.5-6.8-9.4-10.1-11.2C141.1,88.8,135.8,88.4,132.8,89.5z"/><path stroke-width="2" fill-opacity="0" stroke="#000000" d="M193.1,89.7c-4.7,1.9-8.7,6.1-12.2,12.6l-1.8,3.6h2.3c5.9,0,14.8-3.8,19.4-8.3c3.1-3.1,4.7-6.2,3.7-7.1C202.6,88.7,196.5,88.3,193.1,89.7z"/><path stroke-width="2" fill-opacity="0" stroke="#000000" d="M10,167.4v40.8h76.1h76.1v-36c0-19.8-0.1-36-0.2-36c-0.1,0-3,3.9-6.4,8.8c-3.4,4.8-6.3,8.8-6.5,8.8c-0.3,0-10.6-7.1-11.8-8.1c-0.1,0,2.8-4.2,6.3-9.3c3.6-5.1,6.5-9.4,6.5-9.5c0-0.1-31.5-0.3-70.1-0.3H10V167.4z"/><path stroke-width="2" fill-opacity="0" stroke="#000000" d="M185.6,127c0,0.3,2.8,4.4,6.2,9.3c3.4,4.8,6.2,8.9,6.2,9.2c0,0.4-10.1,7.7-11.2,8.2c-0.4,0.1-2-1.7-4.4-5.2c-2.1-3-4.2-5.9-4.7-6.5c-0.8-1.1-0.8-0.1-0.8,32.6v33.7h34.6H246v-40.8v-40.8h-30.2C197.2,126.6,185.6,126.8,185.6,127z"/></g></g></g>
<script xmlns=""/></svg>