<?xml version="1.0" standalone="no"?>
<!DOCTYPE svg PUBLIC "-//W3C//DTD SVG 20010904//EN"
 "http://www.w3.org/TR/2001/REC-SVG-20010904/DTD/svg10.dtd">
<svg version="1.0" xmlns="http://www.w3.org/2000/svg"
 width="512.000000pt" height="512.000000pt" viewBox="0 0 512.000000 512.000000"
 preserveAspectRatio="xMidYMid meet">

<g transform="translate(0.000000,512.000000) scale(0.100000,-0.100000)"
fill="#000000" stroke="none">
<path d="M2475 4461 c-22 -10 -47 -27 -57 -37 -24 -28 -1935 -3490 -1949
-3531 -15 -45 -5 -116 22 -159 11 -19 42 -47 67 -62 l47 -27 1962 0 1961 0 43
30 c52 36 89 103 89 159 0 24 -12 65 -29 101 -63 132 -1904 3452 -1929 3479
-59 63 -151 82 -227 47z m863 -2005 c424 -773 772 -1407 772 -1410 0 -3 -700
-6 -1556 -6 -856 0 -1554 4 -1552 8 11 28 1554 2812 1558 2812 3 0 353 -632
778 -1404z"/>
<path d="M2360 2440 l0 -690 200 0 200 0 0 690 0 690 -200 0 -200 0 0 -690z"/>
<path d="M2497 1590 c-124 -39 -178 -204 -101 -312 64 -91 187 -115 276 -52
155 109 93 355 -93 369 -29 3 -67 0 -82 -5z"/>
</g>
</svg>
