<svg xmlns="http://www.w3.org/2000/svg" xmlns:xlink="http://www.w3.org/1999/xlink" width="128" height="128" viewBox="0 0 128 128">
  <defs>
    <clipPath id="clip-heart">
      <rect width="128" height="128"/>
    </clipPath>
  </defs>
  <g id="heart" clip-path="url(#clip-heart)">
    <path id="_" data-name="" d="M53.609-68.437A18.761,18.761,0,0,1,61.166-66.9a19.92,19.92,0,0,1,6.167,4.153,19.252,19.252,0,0,1,4.153,6.167A18.99,18.99,0,0,1,73-49.047a19.248,19.248,0,0,1-1.479,7.45,19.181,19.181,0,0,1-4.188,6.273L36.5-4.527,5.667-35.324A19.181,19.181,0,0,1,1.479-41.6,19.248,19.248,0,0,1,0-49.047a18.99,18.99,0,0,1,1.515-7.539,19.251,19.251,0,0,1,4.153-6.167A19.92,19.92,0,0,1,11.834-66.9a18.761,18.761,0,0,1,7.557-1.533,18.818,18.818,0,0,1,5.275.677,18.093,18.093,0,0,1,4.3,1.871A22.978,22.978,0,0,1,32.74-63.02q1.8,1.675,3.76,3.671,1.96-2,3.76-3.671a22.977,22.977,0,0,1,3.778-2.869,18.093,18.093,0,0,1,4.3-1.871A18.818,18.818,0,0,1,53.609-68.437Zm10.479,29.87A14.481,14.481,0,0,0,67.3-43.379a14.864,14.864,0,0,0,1.1-5.667,14.688,14.688,0,0,0-1.141-5.792,14.281,14.281,0,0,0-3.155-4.669,14.742,14.742,0,0,0-4.705-3.1,14.891,14.891,0,0,0-5.792-1.123,13.977,13.977,0,0,0-5.311.945,17.853,17.853,0,0,0-4.277,2.477,32.026,32.026,0,0,0-3.76,3.475q-1.8,1.943-3.76,3.939-1.925-1.925-3.743-3.885a33.928,33.928,0,0,0-3.8-3.529,18.815,18.815,0,0,0-4.313-2.566,13.253,13.253,0,0,0-5.258-1,14.531,14.531,0,0,0-5.774,1.158,14.88,14.88,0,0,0-4.723,3.172,14.88,14.88,0,0,0-3.172,4.723,14.531,14.531,0,0,0-1.158,5.774,14.659,14.659,0,0,0,1.123,5.667,14.715,14.715,0,0,0,3.226,4.812L36.5-10.979Z" transform="translate(28 101)"/>
  </g>
</svg>
