<?xml version="1.0" encoding="utf-8"?>
<svg id="Capa_1" enable-background="new 0 0 551.121 551.121" height="512" viewBox="0 0 551.121 551.121" width="512" xmlns="http://www.w3.org/2000/svg" xmlns:bx="https://boxy-svg.com">
  <defs>
    <bx:guide x="247.503" y="467.104" angle="90"/>
    <bx:guide x="533.789" y="303.323" angle="0"/>
    <bx:guide x="438.916" y="276.039" angle="90"/>
    <bx:guide x="266.532" y="85.328" angle="90"/>
    <bx:guide x="275.832" y="149.817" angle="0"/>
    <bx:guide x="16.637" y="170.005" angle="0"/>
  </defs>
  <path d="M 275.561 68.887 C 152.394 68.887 42.027 149.703 0.921 269.994 C -0.307 273.61 -0.307 277.512 0.921 281.128 C 42.027 401.419 152.394 482.235 275.561 482.235 C 398.728 482.235 509.095 401.419 550.201 281.128 C 551.429 277.512 551.429 273.61 550.201 269.994 C 509.094 149.703 398.727 68.887 275.561 68.887 Z M 275.561 467.104 C 169.029 467.104 61.871 392.314 16.637 276.039 C 67.451 147.421 172.766 85.328 275.832 85.328 C 378.898 85.328 500 157.284 533.789 276.039 C 500 391.074 382.093 467.104 275.561 467.104 Z"/>
  <path d="M 275.561 172.224 C 214.237 180.285 179.045 219.198 172.224 275.561 C 180.905 323.863 217.338 368.977 275.561 378.898 C 333.164 370.217 370.837 330.685 378.898 275.561 C 371.457 219.817 328.824 181.526 275.561 172.224 Z M 275.561 359.452 C 237.566 359.452 191.67 313.555 191.67 275.561 C 191.67 237.566 237.567 191.67 275.561 191.67 C 313.556 191.67 359.452 237.567 359.452 275.561 C 359.452 313.555 313.555 359.452 275.561 359.452 Z"/>
</svg>