<?xml version="1.0" encoding="utf-8"?>
<!-- Generator: Adobe Illustrator 26.4.1, SVG Export Plug-In . SVG Version: 6.00 Build 0)  -->
<svg version="1.1" id="Capa_1" xmlns="http://www.w3.org/2000/svg" xmlns:xlink="http://www.w3.org/1999/xlink" x="0px" y="0px"
	 viewBox="0 0 512 541" style="enable-background:new 0 0 512 541;" xml:space="preserve">
<path id="path-1_20_" d="M261.6,137c-35.3,0-64-28.7-64-64c0-35.3,28.7-64,64-64c35.3,0,64,28.7,64,64
	C325.6,108.3,296.9,137,261.6,137z M261.6,41c-17.6,0-32,14.4-32,32s14.4,32,32,32s32-14.4,32-32S279.2,41,261.6,41z"/>
<path id="path-1_19_" d="M261.6,334.6c-35.3,0-64-28.7-64-64c0-35.3,28.7-64,64-64c35.3,0,64,28.7,64,64
	C325.6,305.9,296.9,334.6,261.6,334.6z M261.6,238.6c-17.6,0-32,14.4-32,32s14.4,32,32,32s32-14.4,32-32S279.2,238.6,261.6,238.6
	L261.6,238.6z"/>
<path id="path-1_18_" d="M261.6,532.1c-35.3,0-64-28.7-64-64c0-35.3,28.7-64,64-64c35.3,0,64,28.7,64,64
	C325.6,503.4,296.9,532.1,261.6,532.1z M261.6,436.1c-17.6,0-32,14.4-32,32c0,17.6,14.4,32,32,32s32-14.4,32-32
	C293.6,450.5,279.2,436.1,261.6,436.1L261.6,436.1z"/>
</svg>
