<svg id="Capa_1" enable-background="new 0 0 546.55 546.55" height="512" viewBox="0 0 546.55 546.55" width="512" xmlns="http://www.w3.org/2000/svg"><path d="m541.546 227.04-119.558-119.558c-3.202-3.202-7.539-5.004-12.076-5.004h-68.319v-17.08c0-9.441-7.639-17.08-17.08-17.08h-307.433c-9.441.001-17.08 7.64-17.08 17.08v307.434c0 9.441 7.639 17.08 17.08 17.08h17.08c0 37.662 30.64 68.319 68.319 68.319s68.319-30.657 68.319-68.319h204.956c0 37.662 30.64 68.319 68.319 68.319s68.319-30.657 68.319-68.319h17.08c9.44 0 17.08-7.639 17.08-17.08v-153.716c-.002-4.537-1.803-8.874-5.006-12.076zm-439.067 217.032c-18.831 0-34.159-15.312-34.159-34.159h68.319c-.001 18.847-15.329 34.159-34.16 34.159zm204.956-68.319h-273.275v-273.275h273.275zm136.637 68.319c-18.831 0-34.159-15.312-34.159-34.159h68.319c0 18.847-15.329 34.159-34.16 34.159zm68.319-68.319h-170.797v-239.115h61.247l109.55 109.55z"/></svg>