<svg id="Capa_1" enable-background="new 0 0 415.882 415.882" height="512" viewBox="0 0 415.882 415.882" width="512" xmlns="http://www.w3.org/2000/svg"><path d="m401.029 89.117h-74.272l-.029-59.412-29.67-29.705h-148.529v29.706h148.529v59.412h-178.235v-89.118l-29.706 29.706.022 59.412h-74.286c-8.21-.001-14.853 6.643-14.853 14.852v267.352c0 24.571 19.988 44.559 44.559 44.559h326.764c24.571 0 44.559-19.988 44.559-44.559v-267.352c0-8.209-6.644-14.853-14.853-14.853zm-14.853 282.206c0 8.195-6.658 14.853-14.853 14.853h-326.764c-8.195 0-14.853-6.658-14.853-14.853v-252.5h356.47z"/></svg>