<?xml version="1.0" encoding="iso-8859-1"?>
<!-- Generator: Adobe Illustrator 19.0.0, SVG Export Plug-In . SVG Version: 6.00 Build 0)  -->
<svg version="1.1" id="Layer_1" xmlns="http://www.w3.org/2000/svg" xmlns:xlink="http://www.w3.org/1999/xlink" x="0px" y="0px"
	 viewBox="0 0 512 512" style="enable-background:new 0 0 512 512;" xml:space="preserve">
<g>
	<g>
		<g>
			<path d="M508.875,216.458L402.208,109.792c-2-2-4.708-3.125-7.542-3.125h-96v-32C298.667,68.771,293.896,64,288,64H42.667
				C19.135,64,0,83.135,0,106.667v266.667c0,17.646,14.354,32,32,32h25.266C66.1,430.112,89.559,448,117.333,448
				c27.775,0,51.234-17.888,60.069-42.667h157.197C343.434,430.112,366.892,448,394.667,448s51.234-17.888,60.069-42.667h14.598
				c23.531,0,42.667-19.135,42.667-42.667V224C512,221.167,510.875,218.458,508.875,216.458z M117.333,426.667
				c-23.531,0-42.667-19.135-42.667-42.667s19.135-42.667,42.667-42.667S160,360.469,160,384S140.865,426.667,117.333,426.667z
				 M277.333,117.333V384h-96c0-35.292-28.708-64-64-64c-35.292,0-64,28.708-64,64H32c-5.885,0-10.667-4.781-10.667-10.667V106.667
				c0-11.76,9.573-21.333,21.333-21.333h234.667V117.333z M394.667,426.667C371.135,426.667,352,407.531,352,384
				s19.135-42.667,42.667-42.667s42.667,19.135,42.667,42.667S418.198,426.667,394.667,426.667z M490.667,362.667
				c0,11.76-9.573,21.333-21.333,21.333h-10.667c0-35.292-28.708-64-64-64s-64,28.708-64,64h-32V128h91.583l100.417,100.417V362.667
				z"/>
			<path d="M362.667,160c0-5.896-4.771-10.667-10.667-10.667c-5.896,0-10.667,4.771-10.667,10.667v85.333
				c0,5.896,4.771,10.667,10.667,10.667h106.667c5.896,0,10.667-4.771,10.667-10.667c0-5.896-4.771-10.667-10.667-10.667h-96V160z"
				/>
		</g>
	</g>
</g>
<g>
</g>
<g>
</g>
<g>
</g>
<g>
</g>
<g>
</g>
<g>
</g>
<g>
</g>
<g>
</g>
<g>
</g>
<g>
</g>
<g>
</g>
<g>
</g>
<g>
</g>
<g>
</g>
<g>
</g>
</svg>
