<svg xmlns="http://www.w3.org/2000/svg" viewBox="0 0 397.88 397.88"><g id="Calque_2" data-name="Calque 2"><g id="Calque_1-2" data-name="Calque 1"><path d="M218.57,117.56a19.64,19.64,0,1,1-19.63-19.63,19.64,19.64,0,0,1,19.63,19.63"/><path d="M198.94,19.89c98.72,0,179,80.32,179,179S297.66,378,198.94,378s-179-80.32-179-179,80.32-179,179.05-179m0-19.89C89.07,0,0,89.07,0,198.94S89.07,397.88,198.94,397.88s198.94-89.07,198.94-198.94S308.81,0,198.94,0Z"/><path d="M185,164h27.85V300H185Z"/></g></g></svg>