<?xml version="1.0" encoding="UTF-8" standalone="no"?>
<svg
   version="1.1"
   id="Layer_1"
   x="0px"
   y="0px"
   width="122.881px"
   height="122.88px"
   viewBox="0 0 122.881 122.88"
   enable-background="new 0 0 122.881 122.88"
   xml:space="preserve"
   sodipodi:docname="moins.svg"
   inkscape:version="1.2.2 (b0a8486541, 2022-12-01)"
   xmlns:inkscape="http://www.inkscape.org/namespaces/inkscape"
   xmlns:sodipodi="http://sodipodi.sourceforge.net/DTD/sodipodi-0.dtd"
   xmlns="http://www.w3.org/2000/svg"
   xmlns:svg="http://www.w3.org/2000/svg"><defs
   id="defs9" /><sodipodi:namedview
   id="namedview7"
   pagecolor="#ffffff"
   bordercolor="#666666"
   borderopacity="1.0"
   inkscape:showpageshadow="2"
   inkscape:pageopacity="0.0"
   inkscape:pagecheckerboard="0"
   inkscape:deskcolor="#d1d1d1"
   showgrid="false"
   inkscape:zoom="8"
   inkscape:cx="84.3125"
   inkscape:cy="75.1875"
   inkscape:window-width="1920"
   inkscape:window-height="1043"
   inkscape:window-x="1920"
   inkscape:window-y="0"
   inkscape:window-maximized="1"
   inkscape:current-layer="Layer_1" />
	<g
   id="g4">
		<path
   class="picto-trait"
   d="m 117.922,56.578 c 0.029,-0.003 0.061,-0.006 0.09,-0.006 0.656,0 1.285,0.132 1.861,0.371 0.014,0.005 0.025,0.011 0.037,0.017 0.584,0.248 1.107,0.603 1.543,1.039 0.881,0.88 1.428,2.098 1.428,3.441 0,0.654 -0.133,1.283 -0.371,1.859 -0.248,0.6 -0.609,1.137 -1.057,1.583 -0.445,0.445 -0.98,0.806 -1.58,1.055 v 0.001 c -0.576,0.238 -1.205,0.37 -1.861,0.37 -0.029,0 -0.061,-0.002 -0.09,-0.006 -110.7088304,0 -8.72694,10e-4 -112.964,10e-4 -0.029,0.004 -0.059,0.006 -0.09,0.006 -0.654,0 -1.283,-0.132 -1.859,-0.371 C 2.409,65.69 1.872,65.329 1.426,64.882 0.981,64.437 0.62,63.902 0.371,63.302 v 0 C 0.132,62.726 0,62.097 0,61.44 c 0,-0.655 0.132,-1.283 0.371,-1.859 0.249,-0.6 0.61,-1.137 1.056,-1.583 0.881,-0.881 2.098,-1.426 3.442,-1.426 0.031,0 7.229304,0.002 7.258304,0.006 105.996626,0.07411 -0.04612,0 105.794696,0 z"
   id="path2"
   sodipodi:nodetypes="cscccsccccsccsccssscsscc" /></g></svg>
