<svg xmlns="http://www.w3.org/2000/svg" viewBox="0 0 34.86 31.04"><defs></defs>
	<g id="picto-heart" data-name="Calque 2">
		<g id="Calque_1-2" data-name="Calque 1">
			<path class="picto-fond" fill="transparent" d="M32.7,9.07A9.69,9.69,0,0,1,31,16,28.54,28.54,0,0,1,26,21.6c-2.79,2.45-5.61,4.86-8.42,7.29l-.11.08c-1.09-.93-2.17-1.85-3.24-2.78-2-1.77-4.06-3.52-6.06-5.32a26,26,0,0,1-4.25-4.76A9.79,9.79,0,0,1,2.11,9.42,8.06,8.06,0,0,1,5.92,3.11a7.06,7.06,0,0,1,8.3.64,11.32,11.32,0,0,1,2.07,2.46A1.26,1.26,0,0,0,18,6.72,2,2,0,0,0,18.66,6a10.28,10.28,0,0,1,2.53-2.73,7.21,7.21,0,0,1,8.36.2A8.28,8.28,0,0,1,32.7,9.07Z"/>
			<path class="picto-trait" d="M31,16a9.69,9.69,0,0,0,1.67-7,8.28,8.28,0,0,0-3.15-5.56,7.21,7.21,0,0,0-8.36-.2A10.28,10.28,0,0,0,18.66,6a2,2,0,0,1-.64.68,1.26,1.26,0,0,1-1.73-.51,11.32,11.32,0,0,0-2.07-2.46,7.06,7.06,0,0,0-8.3-.64A8.06,8.06,0,0,0,2.11,9.42a9.79,9.79,0,0,0,1.76,6.69,26,26,0,0,0,4.25,4.76c2,1.8,4,3.55,6.06,5.32,1.07.93,2.15,1.85,3.24,2.78l.11-.08c2.81-2.43,5.63-4.84,8.42-7.29A28.54,28.54,0,0,0,31,16Zm3.83-6.63v2c-.12.62-.21,1.25-.36,1.86a12.83,12.83,0,0,1-1.67,3.74,29.86,29.86,0,0,1-5.43,6c-2.81,2.48-5.66,4.91-8.48,7.36a2.08,2.08,0,0,1-3,0C13.11,28,10.25,25.53,7.44,23a29.07,29.07,0,0,1-5.41-6,12.23,12.23,0,0,1-2-5.3c0-.1,0-.2-.07-.3v-2l.15-.93a10.18,10.18,0,0,1,4-6.65A9.12,9.12,0,0,1,11.21.14a9.3,9.3,0,0,1,5.86,3.59l.35.46c.31-.38.58-.73.88-1.05A8.83,8.83,0,0,1,27,.22c4.05.86,6.44,3.51,7.49,7.44C34.67,8.23,34.75,8.83,34.86,9.41Z"/>
		</g>
	</g>
</svg>