<?xml version="1.0" encoding="utf-8"?>
<svg viewBox="32.5628 27.9994 63.8754 73.0006" width="63.8754" height="73.0006" xmlns="http://www.w3.org/2000/svg">
  <defs>
    <clipPath id="clip-profile">
      <rect width="128" height="128"/>
    </clipPath>
  </defs>
  <g id="profile" clip-path="url(#clip-profile)">
    <path id="_" data-name="" d="M47.407-30.12a30.535,30.535,0,0,1,8.751,4.687,30.958,30.958,0,0,1,6.63,6.969A31.773,31.773,0,0,1,66.976-9.8,32.855,32.855,0,0,1,68.438,0H63.875A27.954,27.954,0,0,0,61.79-10.854a26.574,26.574,0,0,0-5.757-8.679,26.574,26.574,0,0,0-8.679-5.757A27.954,27.954,0,0,0,36.5-27.375a27.783,27.783,0,0,0-7.343.962,27.506,27.506,0,0,0-6.576,2.727,26.691,26.691,0,0,0-5.525,4.242,26.691,26.691,0,0,0-4.242,5.525,27.506,27.506,0,0,0-2.727,6.576A27.783,27.783,0,0,0,9.125,0H4.563a32.08,32.08,0,0,1,1.5-9.82A31.766,31.766,0,0,1,10.3-18.428a31.322,31.322,0,0,1,6.648-6.915,32.349,32.349,0,0,1,8.715-4.741,22.414,22.414,0,0,1-4.99-3.636,22.649,22.649,0,0,1-3.76-4.759,23.365,23.365,0,0,1-2.388-5.6,22.457,22.457,0,0,1-.838-6.113,22.308,22.308,0,0,1,1.782-8.893,22.948,22.948,0,0,1,4.883-7.254,22.948,22.948,0,0,1,7.254-4.883A22.308,22.308,0,0,1,36.5-73a22.308,22.308,0,0,1,8.893,1.782,22.948,22.948,0,0,1,7.254,4.883,22.948,22.948,0,0,1,4.883,7.254,22.308,22.308,0,0,1,1.782,8.893,22.266,22.266,0,0,1-.838,6.1,23.113,23.113,0,0,1-2.388,5.561,23.6,23.6,0,0,1-3.743,4.759A22.07,22.07,0,0,1,47.407-30.12ZM18.25-50.187a17.571,17.571,0,0,0,1.444,7.093A18.618,18.618,0,0,0,23.615-37.3a18.618,18.618,0,0,0,5.792,3.921A17.571,17.571,0,0,0,36.5-31.937a17.571,17.571,0,0,0,7.093-1.444A18.618,18.618,0,0,0,49.385-37.3a18.618,18.618,0,0,0,3.921-5.792,17.571,17.571,0,0,0,1.444-7.093,17.571,17.571,0,0,0-1.444-7.093,18.618,18.618,0,0,0-3.921-5.792,18.618,18.618,0,0,0-5.792-3.921A17.571,17.571,0,0,0,36.5-68.437a17.571,17.571,0,0,0-7.093,1.444,18.618,18.618,0,0,0-5.792,3.921,18.618,18.618,0,0,0-3.921,5.792A17.571,17.571,0,0,0,18.25-50.187Z" transform="translate(28 101)"/>
  </g>
</svg>