<?xml version="1.0" encoding="UTF-8"?>
<svg xmlns="http://www.w3.org/2000/svg" xmlns:xlink="http://www.w3.org/1999/xlink" viewBox="0 0 64 64" width="64px" height="64px">
<g id="surface12658903">
<path style=" stroke:none;fill-rule:nonzero;fill:rgb(100%,100%,100%);fill-opacity:1;" d="M 32.007812 6.398438 C 17.867188 6.398438 6.398438 17.863281 6.398438 32 C 6.398438 46.136719 17.867188 57.601562 32.007812 57.601562 C 53.363281 57.601562 58.175781 37.773438 56.171875 27.734375 L 32 27.734375 L 32 36.265625 L 48.507812 36.265625 C 46.609375 43.621094 39.949219 49.066406 32 49.066406 C 22.574219 49.066406 14.933594 41.425781 14.933594 32 C 14.933594 22.574219 22.574219 14.933594 32 14.933594 C 36.285156 14.933594 40.191406 16.523438 43.1875 19.132812 L 49.25 13.074219 C 44.699219 8.929688 38.648438 6.398438 32.007812 6.398438 Z M 32.007812 6.398438 "/>
</g>
</svg>
