<svg height="512" viewBox="0 0 64 64" width="512" xmlns="http://www.w3.org/2000/svg"><g id="Layer_79" data-name="Layer 79"><path d="m4 13.87h56v36.26h-56z" fill="#de2910"/><g fill="#ffde00"><path d="m15.69 27.41-4.02 3.13 1.74-4.79-4.23-2.85 5.1.17 1.41-4.9 1.4 4.9 5.1-.17-4.23 2.85 1.75 4.79z"/><path d="m23.88 18.83-1.52.47 1.04-1.2-.91-1.31 1.46.62.96-1.27-.14 1.59 1.51.52-1.55.36-.03 1.59z"/><path d="m28.23 23.67-1.59.17 1.25-.98-.65-1.45 1.32.88 1.18-1.07-.43 1.53 1.38.79-1.59.06-.32 1.56z"/><path d="m27.54 29.59-1.32-.88 1.59.04.43-1.53.45 1.53 1.59-.06-1.32.9.55 1.49-1.26-.98-1.25.99z"/><path d="m23.51 33.46-1.32-.89 1.59.05.43-1.53.45 1.53 1.59-.07-1.32.9.56 1.49-1.26-.97-1.25.99z"/></g></g></svg>