<svg id="Capa_1" enable-background="new 0 0 437.499 437.499" height="512" viewBox="0 0 437.499 437.499" width="512" xmlns="http://www.w3.org/2000/svg"><path d="m432.296 3.98c-3.326-2.96-7.706-4.349-12.146-3.891l-281.25 31.249c-7.919.885-13.9 7.569-13.9 15.534v250.398c-13.098-9.914-29.221-16.024-46.875-16.024-43.076.001-78.125 35.05-78.125 78.125s35.049 78.125 78.125 78.125 78.125-35.049 78.125-78.125v-236.011l250-27.777v201.687c-13.098-9.914-29.221-16.024-46.875-16.024-43.076 0-78.125 35.049-78.125 78.125s35.049 78.125 78.125 78.125 78.125-35.049 78.125-78.125v-343.749c-.001-4.44-1.893-8.682-5.204-11.642zm-354.171 402.268c-25.848 0-46.875-21.027-46.875-46.875s21.027-46.875 46.875-46.875 46.875 21.026 46.875 46.875c0 25.848-21.027 46.875-46.875 46.875zm78.125-314.337v-31.046l250-27.786v31.055zm203.124 314.337c-25.848 0-46.875-21.027-46.875-46.875s21.027-46.875 46.875-46.875 46.875 21.027 46.875 46.875-21.026 46.875-46.875 46.875z"/></svg>