<?xml version="1.0" encoding="iso-8859-1"?>
<!-- Generator: Adobe Illustrator 19.0.0, SVG Export Plug-In . SVG Version: 6.00 Build 0)  -->
<svg version="1.1" id="Layer_1" xmlns="http://www.w3.org/2000/svg" xmlns:xlink="http://www.w3.org/1999/xlink" x="0px" y="0px"
	 viewBox="0 0 512 512" style="enable-background:new 0 0 512 512;" xml:space="preserve">
<g>
	<g>
		<g>
			<path d="M288.646,376.979c0.979,2.688,2.99,4.875,5.604,6.063c1.396,0.635,2.906,0.958,4.417,0.958
				c1.292,0,2.594-0.24,3.833-0.708l138.667-53.333c5.427-2.094,8.177-8.135,6.188-13.604l-42.667-117.333
				c-0.979-2.688-2.99-4.875-5.604-6.063c-2.604-1.177-5.583-1.281-8.25-0.25l-138.667,53.333
				c-5.427,2.094-8.177,8.135-6.188,13.604L288.646,376.979z M317.108,243.926l9.475,27.543c1.521,4.427,5.656,7.198,10.083,7.198
				c1.146,0,2.323-0.188,3.469-0.583c5.573-1.917,8.531-7.979,6.615-13.552l-9.724-28.267l51.328-19.744l35.375,97.281
				l-118.75,45.677l-35.375-97.281L317.108,243.926z"/>
			<path d="M489.938,348.135c-2.125-5.49-8.323-8.208-13.802-6.073l-187.026,72.73c-3.572-5.835-8.059-10.952-13.249-15.362
				L159.344,81.656c-0.833-2.281-2.438-4.219-4.521-5.469L63.935,21.655C63.937,21.542,64,21.447,64,21.333
				C64,9.573,54.427,0,42.667,0c-11.76,0-21.333,9.573-21.333,21.333c0,11.76,9.573,21.333,21.333,21.333
				c3.701,0,7.012-1.198,10.049-2.865l87.898,52.74l30.935,84.366l-31.362,52.27c-1.604,2.667-1.958,5.906-0.969,8.865
				l53.897,161.682c-13.628,11.746-22.449,28.915-22.449,48.276c0,35.292,28.708,64,64,64c35.292,0,64-28.708,64-64
				c0-4.625-0.547-9.116-1.483-13.465l186.681-72.598C489.355,359.802,492.073,353.625,489.938,348.135z M42.672,21.324
				c-0.001-0.004-0.005-0.007-0.005-0.007l0.013-0.005L42.672,21.324z M161,235.948l19.986-33.305l29.418,80.228l-28.939,14.469
				L161,235.948z M188.282,317.786l29.514-14.756l30.22,82.417c-4.313-0.919-8.766-1.447-13.349-1.447
				c-8.073,0-15.727,1.661-22.845,4.401L188.282,317.786z M234.667,490.667C211.136,490.667,192,471.531,192,448
				s19.135-42.667,42.667-42.667s42.667,19.135,42.667,42.667S258.198,490.667,234.667,490.667z"/>
		</g>
	</g>
</g>
<g>
</g>
<g>
</g>
<g>
</g>
<g>
</g>
<g>
</g>
<g>
</g>
<g>
</g>
<g>
</g>
<g>
</g>
<g>
</g>
<g>
</g>
<g>
</g>
<g>
</g>
<g>
</g>
<g>
</g>
</svg>
