<?xml version="1.0" encoding="iso-8859-1"?>
<!-- Generator: Adobe Illustrator 19.0.0, SVG Export Plug-In . SVG Version: 6.00 Build 0)  -->
<svg version="1.1" id="Capa_1" xmlns="http://www.w3.org/2000/svg" xmlns:xlink="http://www.w3.org/1999/xlink" x="0px" y="0px"
	 viewBox="0 0 469.333 469.333" style="enable-background:new 0 0 469.333 469.333;" xml:space="preserve">
<g>
	<g>
		<path d="M461.594,85.74L312.26,43.074c-1.931-0.547-3.957-0.54-5.854,0L160,84.904L13.594,43.074
			c-3.188-0.906-6.677-0.271-9.354,1.74C1.573,46.834,0,49.99,0,53.334v320c0,4.76,3.156,8.948,7.74,10.26l149.333,42.667
			c0.958,0.271,1.948,0.406,2.927,0.406c0.991,0,1.977-0.135,2.927-0.406l146.406-41.831l146.406,41.831
			c0.958,0.271,1.948,0.406,2.927,0.406c2.292,0,4.552-0.74,6.427-2.146c2.667-2.021,4.24-5.177,4.24-8.521v-320
			C469.333,91.24,466.177,87.053,461.594,85.74z M149.333,401.855l-128-36.563V67.48l128,36.563V401.855z M298.667,365.285
			l-128,36.572V104.05l128-36.572V365.285z M448,401.855l-128-36.563V67.48l128,36.563V401.855z"/>
	</g>
</g>
<g>
</g>
<g>
</g>
<g>
</g>
<g>
</g>
<g>
</g>
<g>
</g>
<g>
</g>
<g>
</g>
<g>
</g>
<g>
</g>
<g>
</g>
<g>
</g>
<g>
</g>
<g>
</g>
<g>
</g>
</svg>
