<svg id="Capa_1" enable-background="new 0 0 443.294 443.294" height="512" viewBox="0 0 443.294 443.294" width="512" xmlns="http://www.w3.org/2000/svg"><path d="m346.324 443.294c-1.907 0-3.828-.392-5.628-1.19l-119.049-52.909-119.049 52.909c-4.288 1.894-9.226 1.502-13.177-1.042-3.937-2.557-6.304-6.926-6.304-11.621v-415.588c.001-7.657 6.197-13.853 13.854-13.853h249.353c7.657 0 13.853 6.196 13.853 13.853v415.588c0 4.694-2.367 9.064-6.304 11.621-2.287 1.474-4.912 2.232-7.549 2.232zm-124.677-83.118c1.921 0 3.842.392 5.628 1.19l105.196 46.754v-380.415h-221.647v380.416l105.196-46.754c1.786-.798 3.707-1.191 5.627-1.191z"/></svg>