<svg height="512" viewBox="0 0 16 16" width="512" xmlns="http://www.w3.org/2000/svg"><path d="m3.5 0h-3c-.276367 0-.5.223633-.5.5v9c0 .276367.223633.5.5.5h3c.276367 0 .5-.223633.5-.5v-9c0-.276367-.223633-.5-.5-.5zm-.5 9h-2v-8h2z" transform="translate(0 1)"/><path d="m10.9478 5.71826-1.0625-3.87842c-.296387-1.08301-1.28809-1.83936-2.41113-1.83936l-4.97412-.0004882c-1.37842 0-2.5 1.12158-2.5 2.5v4.23242c0 .618164.227539 1.21191.641602 1.67236l3.98682 4.42969c.0961914.106933.231934.165527.371582.165527.0405273 0 .0810547-.0048828.121094-.0151367l.734863-.183594c.456055-.11377.825195-.426758 1.01221-.858398.187012-.431152.163574-.914062-.0649414-1.32471l-1.0415-1.87549c-.125-.225586-.0371094-.422363.0063477-.496094.0434569-.0742187.172852-.246582.431152-.246582h2.9541c1.01807 0 1.84668-.828613 1.84668-1.84668 0-.139648-.0161133-.279297-.0522461-.435059zm-1.79443 1.28174h-2.9541c-.537109 0-1.02051.276367-1.29297.739258-.272461.462891-.279297 1.01953-.0185547 1.48877l1.0415 1.87549c.0761719.137207.0839844.297852.0214844.441406-.0625.144043-.185547.248535-.337402.286621l-.442871.110352-3.78516-4.20605c-.248535-.275879-.385254-.632324-.385254-1.00342v-4.23242c0-.827148.672852-1.5 1.5-1.5h4.97412c.673828 0 1.26855.454102 1.44629 1.104l1.05762 3.85938c.0146484.0625.0219726.126465.0219726.189941 0 .466797-.379883.84668-.84668.84668z" transform="translate(5 2)"/></svg>