<svg id="Capa_1" enable-background="new 0 0 512 512" height="512" viewBox="0 0 512 512" width="512" xmlns="http://www.w3.org/2000/svg"><g><path d="m328.145 367.709c12.976 0 23.532-10.557 23.532-23.532s-10.557-23.532-23.532-23.532h-7.653l1.747-15.725c.458-4.117-2.509-7.825-6.626-8.282-4.108-.457-7.824 2.509-8.282 6.626l-1.931 17.381h-98.8l-4.502-40.52c5.429-2.535 23.229-11.225 43.855-25.322 30.616-20.926 52.791-43.516 66.017-67.225 4.557 5.074 6.889 11.931 6.094 19.092l-7.17 64.531c-.458 4.117 2.509 7.825 6.626 8.282.281.031.561.046.837.046 3.771 0 7.019-2.837 7.445-6.672l7.17-64.531c1.939-17.449-7.601-33.819-23.737-40.734l-29.39-12.596c-.19-.082-.313-.268-.313-.475v-17.505c13.476-7.701 22.847-21.795 23.941-38.125l5.927-5.927c1.407-1.406 2.197-3.314 2.197-5.303 0-19.565-10.167-36.789-25.486-46.7.949-3.031 1.438-6.181 1.438-9.413-.001-17.396-14.153-31.548-31.549-31.548s-31.548 14.152-31.548 31.548c0 3.226.482 6.382 1.432 9.416-15.316 9.912-25.481 27.134-25.481 46.697 0 1.989.79 3.897 2.197 5.303l5.927 5.927c1.094 16.329 10.465 30.424 23.941 38.125v17.505c0 .207-.123.393-.313.475l-29.39 12.596c-16.136 6.916-25.676 23.286-23.737 40.734l12.48 112.32h-7.653c-12.976 0-23.532 10.557-23.532 23.532s10.557 23.532 23.532 23.532h.516v129.29h-8.532c-4.142 0-7.5 3.358-7.5 7.5s3.358 7.5 7.5 7.5h160.322c4.142 0 7.5-3.358 7.5-7.5s-3.358-7.5-7.5-7.5h-8.532v-129.291zm-127.807-103.419-2.98-26.816c14.251-4.558 62.591-22.284 93.756-61.329l8.109 3.475c-24.58 44.637-80.48 75.442-98.885 84.67zm39.114-232.742c0-9.125 7.423-16.548 16.548-16.548s16.548 7.423 16.548 16.548c0 1.002-.107 1.983-.281 2.95-5.148-1.578-10.609-2.433-16.268-2.433-5.661 0-11.124.856-16.274 2.435-.173-.967-.273-1.951-.273-2.952zm-18.229 58.826-5.71-5.71c1.54-20.991 19.11-37.6 40.487-37.6s38.948 16.609 40.487 37.6l-2.832 2.832c-30.104-6.784-44.991-20.545-45.244-20.783-2.981-2.856-7.712-2.765-10.582.206-2.878 2.979-2.795 7.728.184 10.605.718.693 16.982 16.104 50.019 24.068-2.791 15.15-16.088 26.666-32.033 26.666-17.965 0-32.581-14.616-32.581-32.581.001-1.989-.789-3.897-2.195-5.303zm-12.549 91.004 29.39-12.596c5.712-2.448 9.404-8.046 9.404-14.262v-12.04c2.77.504 5.619.778 8.532.778s5.762-.274 8.532-.778v12.04c0 6.215 3.691 11.813 9.404 14.262l2.809 1.204c-26.544 31.048-65.908 46.956-81.083 52.212l-1.725-15.529c-1.205-10.834 4.718-20.997 14.737-25.291zm-33.351 162.799c0-4.705 3.828-8.532 8.532-8.532h144.29c4.705 0 8.532 3.828 8.532 8.532s-3.828 8.532-8.532 8.532h-144.29c-4.705 0-8.532-3.827-8.532-8.532zm137.306 152.823h-113.258v-129.291h113.258z"/><path d="m231.952 399.774h48.097c4.142 0 7.5-3.358 7.5-7.5s-3.358-7.5-7.5-7.5h-48.097c-4.142 0-7.5 3.358-7.5 7.5s3.358 7.5 7.5 7.5z"/><path d="m272.032 416.839h-32.064c-4.142 0-7.5 3.358-7.5 7.5s3.358 7.5 7.5 7.5h32.064c4.142 0 7.5-3.358 7.5-7.5s-3.358-7.5-7.5-7.5z"/></g></svg>