<?xml version="1.0" encoding="iso-8859-1"?>
<!-- Generator: Adobe Illustrator 19.0.0, SVG Export Plug-In . SVG Version: 6.00 Build 0)  -->
<svg version="1.1" id="Capa_1" xmlns="http://www.w3.org/2000/svg" xmlns:xlink="http://www.w3.org/1999/xlink" x="0px" y="0px"
	 viewBox="0 0 469.333 469.333" style="enable-background:new 0 0 469.333 469.333;" xml:space="preserve">
<g>
	<g>
		<g>
			<path d="M469.333,181.26c-0.021-3.333-1.604-6.458-4.271-8.458l-38.396-28.797V42.667C426.667,19.135,407.521,0,384,0H85.333
				C61.812,0,42.667,19.135,42.667,42.667v101.339L4.271,172.802c-2.667,2-4.25,5.125-4.271,8.458c0,0.026,0.017,0.047,0.017,0.073
				H0v245.333c0,23.531,19.146,42.667,42.667,42.667h384c23.521,0,42.667-19.135,42.667-42.667V181.333h-0.017
				C469.316,181.307,469.333,181.286,469.333,181.26z M426.667,170.659l14.417,10.81c-3.905,3.031-8.874,6.893-14.417,11.208
				V170.659z M64,42.667c0-11.76,9.563-21.333,21.333-21.333H384c11.771,0,21.333,9.573,21.333,21.333v166.656
				c-49.508,38.707-124.674,98.046-156.125,125.896c-4.479,3.948-18.542,9.625-29.417,0C188.113,307.177,113.322,248.013,64,209.38
				V42.667z M42.667,170.664v22.042c-5.544-4.324-10.51-8.19-14.417-11.227L42.667,170.664z M448,426.667
				c0,11.76-9.563,21.333-21.333,21.333h-384c-11.771,0-21.333-9.573-21.333-21.333V203.117
				c44.484,34.622,147.363,115.349,184.333,148.081c8.479,7.5,18.375,11.469,28.667,11.469c10.354,0,20.646-4.073,29-11.469
				C301.754,317.191,406.669,235.228,448,203.109V426.667z"/>
			<path d="M276.729,245.333c0-5.896-4.771-10.667-10.667-10.667h-21.333v-49.336l72.021-82.31
				c2.771-3.146,3.417-7.615,1.688-11.427c-1.729-3.813-5.521-6.26-9.708-6.26H159.396c-4.188,0-7.979,2.448-9.708,6.26
				c-1.729,3.813-1.083,8.281,1.688,11.427l72.021,82.31v49.336h-21.333c-5.896,0-10.667,4.771-10.667,10.667
				c0,5.896,4.771,10.667,10.667,10.667h64C271.958,256,276.729,251.229,276.729,245.333z M182.896,106.667h102.333l-51.167,58.469
				L182.896,106.667z"/>
		</g>
	</g>
</g>
<g>
</g>
<g>
</g>
<g>
</g>
<g>
</g>
<g>
</g>
<g>
</g>
<g>
</g>
<g>
</g>
<g>
</g>
<g>
</g>
<g>
</g>
<g>
</g>
<g>
</g>
<g>
</g>
<g>
</g>
</svg>
