<?xml version="1.0" encoding="iso-8859-1"?>
<!-- Generator: Adobe Illustrator 19.0.0, SVG Export Plug-In . SVG Version: 6.00 Build 0)  -->
<svg version="1.1" id="Layer_1" xmlns="http://www.w3.org/2000/svg" xmlns:xlink="http://www.w3.org/1999/xlink" x="0px" y="0px"
	 viewBox="0 0 512 512" style="enable-background:new 0 0 512 512;" xml:space="preserve">
<g>
	<g>
		<path d="M384,234.667C384,211.135,364.854,192,341.333,192V85.333C341.333,38.281,303.063,0,256,0s-85.333,38.281-85.333,85.333
			V192C147.146,192,128,211.135,128,234.667c0,66.983,51.734,122.01,117.333,127.46V448h-32c-23.521,0-42.667,19.135-42.667,42.667
			v10.667c0,5.896,4.771,10.667,10.667,10.667h149.333c5.896,0,10.667-4.771,10.667-10.667v-10.667
			c0-23.531-19.146-42.667-42.667-42.667h-32v-85.874C332.266,356.677,384,301.65,384,234.667z M224,213.333h-32V192h32
			c5.896,0,10.667-4.771,10.667-10.667c0-5.896-4.771-10.667-10.667-10.667h-32v-21.333h32c5.896,0,10.667-4.771,10.667-10.667
			c0-5.896-4.771-10.667-10.667-10.667h-32v-21.333h32c5.896,0,10.667-4.771,10.667-10.667S229.896,85.333,224,85.333h-32
			c0-35.292,28.708-64,64-64s64,28.708,64,64h-32c-5.896,0-10.667,4.771-10.667,10.667s4.771,10.667,10.667,10.667h32V128h-32
			c-5.896,0-10.667,4.771-10.667,10.667c0,5.896,4.771,10.667,10.667,10.667h32v21.333h-32c-5.896,0-10.667,4.771-10.667,10.667
			c0,5.896,4.771,10.667,10.667,10.667h32v21.333h-32c-5.896,0-10.667,4.771-10.667,10.667s4.771,10.667,10.667,10.667h32
			c0,35.292-28.708,64-64,64s-64-28.708-64-64h32c5.896,0,10.667-4.771,10.667-10.667S229.896,213.333,224,213.333z
			 M298.667,469.333c11.771,0,21.333,9.573,21.333,21.333H192c0-11.76,9.563-21.333,21.333-21.333H298.667z M256,341.333
			c-58.813,0-106.667-47.854-106.667-106.667c0-11.76,9.563-21.333,21.333-21.333v21.333C170.667,281.719,208.938,320,256,320
			s85.333-38.281,85.333-85.333v-21.333c11.771,0,21.333,9.573,21.333,21.333C362.667,293.479,314.813,341.333,256,341.333z"/>
	</g>
</g>
<g>
</g>
<g>
</g>
<g>
</g>
<g>
</g>
<g>
</g>
<g>
</g>
<g>
</g>
<g>
</g>
<g>
</g>
<g>
</g>
<g>
</g>
<g>
</g>
<g>
</g>
<g>
</g>
<g>
</g>
</svg>
