<svg id="Capa_1" enable-background="new 0 0 528 528" height="512" viewBox="0 0 528 528" width="512" xmlns="http://www.w3.org/2000/svg"><path d="m511.5 363h-16.5v-280.5c0-9.12-7.38-16.5-16.5-16.5h-429c-9.12 0-16.5 7.38-16.5 16.5v280.5h-16.5c-9.12 0-16.5 7.38-16.5 16.5v33c0 27.296 22.204 49.5 49.5 49.5h429c27.296 0 49.5-22.204 49.5-49.5v-33c0-9.12-7.38-16.5-16.5-16.5zm-445.5-264h396v264h-115.5c-2.562 0-5.092.596-7.38 1.74l-29.52 14.76h-91.201l-29.52-14.76c-2.288-1.144-4.818-1.74-7.38-1.74h-115.499zm429 313.5c0 9.104-7.396 16.5-16.5 16.5h-429c-9.104 0-16.5-7.396-16.5-16.5v-16.5h144.601l29.52 14.76c2.288 1.144 4.818 1.74 7.38 1.74h99c2.562 0 5.092-.596 7.38-1.74l29.52-14.76h144.599z"/></svg>