<svg id="Capa_1" enable-background="new 0 0 488.471 488.471" height="512" viewBox="0 0 488.471 488.471" width="512" xmlns="http://www.w3.org/2000/svg"><path d="m265.822 375.296c11.922 11.922 11.922 31.253 0 43.175s-31.253 11.922-43.175 0-11.922-31.253 0-43.175c11.923-11.923 31.253-11.923 43.175 0"/><path d="m265.822 70.001c11.922 11.922 11.922 31.253 0 43.175s-31.253 11.922-43.175 0-11.922-31.253 0-43.175c11.923-11.923 31.253-11.923 43.175 0"/><path d="m113.175 222.648c11.922 11.922 11.922 31.253 0 43.175s-31.253 11.922-43.175 0-11.922-31.253 0-43.175c11.923-11.923 31.253-11.923 43.175 0"/><path d="m-121.595 324.035c11.922 11.922 11.922 31.252 0 43.174s-31.252 11.922-43.174 0-11.922-31.252 0-43.174 31.252-11.922 43.174 0" transform="matrix(.707 -.707 .707 .707 -6.849 6.536)"/><path d="m26.056 169.316c11.922 11.922 11.923 31.253 0 43.175-11.922 11.923-31.253 11.923-43.175 0s-11.923-31.253 0-43.175c11.922-11.922 31.253-11.922 43.175 0" transform="matrix(.707 -.707 .707 .707 -1.849 4.464)"/><path d="m427.402 183.205c-33.68 0-61.07 27.388-61.07 61.068 0 16.832-13.701 30.533-30.533 30.533-16.834 0-30.535-13.701-30.535-30.533v-7.634c0-9.557 4.563-18.695 12.211-24.436l8.812-6.604c25.077-18.801 40.046-48.738 40.046-80.078v-3.116c0-67.331-54.776-122.241-122.137-122.405-73.219 0-141.951 32.426-188.573 88.978-46.606 56.536-65.169 130.948-50.946 204.152 18.548 95.494 95.166 172.112 190.662 190.658 16.131 3.147 32.322 4.683 48.381 4.683 56.76 0 111.701-19.293 155.772-55.627 56.551-46.621 88.979-115.352 88.979-188.571 0-33.681-27.388-61.069-61.069-61.068zm-47.337 226.082c-49.47 40.793-114.623 57.013-178.913 44.534-83.387-16.191-150.316-83.119-166.507-166.507-12.479-64.228 3.757-129.441 44.534-178.909 40.806-49.484 100.95-77.872 164.971-77.872 50.542.134 91.648 41.344 91.648 91.872v3.116c0 21.783-10.407 42.582-27.822 55.657l-8.825 6.604c-15.298 11.48-24.421 29.745-24.421 48.857v7.634c0 33.68 27.388 61.068 61.068 61.068s61.068-27.388 61.068-61.068c0-16.834 13.701-30.535 30.535-30.535 16.832 0 30.533 13.701 30.533 30.535.002 64.064-28.385 124.208-77.869 165.014z"/></svg>