<svg id="Capa_1" enable-background="new 0 0 524.235 524.235" height="512" viewBox="0 0 524.235 524.235" width="512" xmlns="http://www.w3.org/2000/svg"><path d="m262.117 0c-144.529 0-262.117 117.588-262.117 262.117s117.588 262.117 262.117 262.117 262.117-117.588 262.117-262.117-117.587-262.117-262.117-262.117zm44.83 37.228c4.726 5.749 13.581 18.366 13.581 32.573 0 3.28-.48 4.64-.4 4.704-.496.352-1.92 1.024-2.88 1.472-5.407 2.528-18.094 8.463-18.094 25.885 0 15.294 13.039 26.125 25.661 36.62 4.256 3.536 11.295 9.391 14.878 13.503-4.88 2.704-12.655 6.127-18.798 8.847-32.781 14.511-81.624 36.108-85.591 84.248-10.943 14.591-10.943 31.549-10.943 38.412 0 7.129 1.932 13.645 4.684 19.664-25.115-18.718-57.06-46.237-72.437-62.86-17.038-18.398-17.038-23.166-17.006-68.649v-5.679c0-29.865-2.372-66.045-15.974-86.239 38.534-29.331 86.435-46.963 138.49-46.963 15.344-.001 30.321 1.575 44.829 4.462zm2.606 449.247c-1.76.372-3.558.618-5.331.95 3.04-15.628 6.323-34.575 6.323-43.678 0-13.007-10.623-25.053-24.078-40.316-6.575-7.471-17.582-19.95-18.654-23.79 0-2.16 2.176-6.559 3.92-10.111 3.556-7.245 8.039-17.03 5.193-27.737 3.128-.83 6.087-2.38 8.325-4.915 1.424-1.616 5.487-4.96 6.255-5.311 4.592 1.616 19.79 13.103 29.837 20.718 27.101 20.494 44.412 33.053 58.298 33.053 2.992.016 4.48.48 4.336.32.016 0 .656 1.136.848 2.672-3.469 13.863-47.655 83.316-75.272 98.145zm-276.788-224.358c0-62.514 25.203-119.204 65.901-160.616 3.346 7.171 8.171 24.298 8.171 64.465v5.663c-.032 47.195-.048 63.098 25.725 90.935 20.51 22.142 80.408 73.945 111.413 89.079-.544 1.168-1.152 2.416-1.648 3.424-3.248 6.591-7.279 14.798-7.279 24.574 0 15.006 13.039 29.789 26.829 45.452 5.903 6.703 14.831 16.814 15.902 18.654 0 6.951-3.934 28.813-7.699 47.319-2.666.092-5.275.404-7.963.404-126.466 0-229.352-102.885-229.352-229.353zm348.783 195.431c20.254-28.113 35.849-57.16 35.849-67.219-.016-23.278-14.399-38.972-36.652-37.66-6.543-1.488-27.261-17.166-39.628-26.525-24.749-18.718-36.14-26.989-46.955-26.989-8.831 0-16.334 3.04-22.014 6.527-7.279-6.079-15.022-14.687-15.022-22.19 0-5.087 0-14.575 5.903-20.478 3.056-3.072 4.784-7.247 4.784-11.583 0-28.941 30.045-44.571 66.345-60.634 22.622-9.999 40.492-17.902 40.492-35.516 0-17.982-15.342-30.733-28.893-41.996-3.328-2.768-8.207-6.815-11.215-9.311 7.423-3.936 18.75-12.415 18.75-34.173 0-6.887-1.25-13.305-2.98-19.348 82.806 34.633 141.158 116.44 141.158 211.664-.001 82.684-44.126 155.069-109.922 195.431z"/></svg>