<?xml version="1.0" encoding="iso-8859-1"?>
<!-- Generator: Adobe Illustrator 19.0.0, SVG Export Plug-In . SVG Version: 6.00 Build 0)  -->
<svg version="1.1" id="Layer_1" xmlns="http://www.w3.org/2000/svg" xmlns:xlink="http://www.w3.org/1999/xlink" x="0px" y="0px"
	 viewBox="0 0 469.333 469.333" style="enable-background:new 0 0 469.333 469.333;" xml:space="preserve">
<g>
	<g>
		<path d="M468.661,284.668l0.13-0.043l-60.776-182.328c10.396-6.424,16.672-18.505,14.984-31.391
			c-2.313-17.479-18.229-29.938-35.938-27.531L276.729,57.953c0.284-1.52,0.604-3.033,0.604-4.62c0-15.385-17-53.333-42.667-53.333
			S192,37.948,192,53.333c0,5.546,1.96,10.635,5.138,15.137L69.833,85.292c-17.5,2.323-29.833,18.438-27.542,35.917
			c1.503,11.365,8.904,20.458,18.655,24.87L0.542,327.292l0.13,0.043C0.318,328.397,0,329.484,0,330.667
			c0,41.167,33.5,74.667,74.667,74.667s74.667-33.5,74.667-74.667c0-1.182-0.318-2.27-0.672-3.332l0.13-0.043L88.182,145.464
			c5.085-2.579,9.47-6.346,12.526-11.203c32.125,11.417,66.021,17.229,100,17.229c2.853,0,5.702-0.199,8.555-0.281
			c-6.853,119.404-20.547,224.525-25.891,254.125h-12.706C147.146,405.333,128,424.469,128,448v10.667
			c0,5.896,4.771,10.667,10.667,10.667h192c5.896,0,10.667-4.771,10.667-10.667V448c0-23.531-19.146-42.667-42.667-42.667h-12.704
			c-5.445-30.15-19.51-138.354-26.249-260.289c39.421-8.012,77.113-23.486,110.245-46.357c3.038,2.805,6.622,4.879,10.456,6.32
			l-59.872,179.617l0.13,0.043C320.318,285.73,320,286.818,320,288c0,41.167,33.5,74.667,74.667,74.667
			c41.167,0,74.667-33.5,74.667-74.667C469.333,286.818,469.016,285.73,468.661,284.668z M234.667,21.333
			c9.229,0,21.333,23.437,21.333,32c0,2.844-4.047,6.523-10.411,8.736l-12.842,1.697c-11.668-0.639-19.413-6.415-19.413-10.432
			C213.333,44.771,225.437,21.333,234.667,21.333z M74.667,384c-25.75,0-47.313-18.354-52.271-42.667h104.542
			C121.979,365.646,100.417,384,74.667,384z M123.862,320H25.471l49.195-147.604L123.862,320z M298.667,426.667
			C310.437,426.667,320,436.24,320,448H149.333c0-11.76,9.563-21.333,21.333-21.333H298.667z M264.354,405.333H205
			c6.355-37.185,19.122-138.587,25.708-255.525c2.621-0.267,5.25-0.44,7.867-0.777C245.065,264.422,257.995,367.749,264.354,405.333
			z M374.792,73.615c-3.104-0.802-6.417-0.135-8.979,1.792c-37.729,28.094-82.333,46.208-128.979,52.375
			c-46.625,6.146-94.396,0.26-138.167-17.073c-1.271-0.5-2.604-0.75-3.938-0.75c-1.813,0-3.604,0.458-5.208,1.354
			c-2.792,1.573-4.75,4.313-5.292,7.479c-0.833,4.75-4.292,8.208-8.813,8.802c-6.042,0.76-11.188-3.365-11.958-9.177
			c-0.771-5.833,3.333-11.208,9.167-11.979l317.229-41.917c5.75-0.802,11.208,3.333,11.979,9.177
			c0.771,5.833-3.333,11.208-9.167,11.979c-4.479,0.573-8.771-1.833-10.813-6.219C380.5,76.542,377.917,74.406,374.792,73.615z
			 M394.667,129.729l49.195,147.604h-98.391L394.667,129.729z M394.667,341.333c-25.75,0-47.313-18.354-52.271-42.667h104.542
			C441.979,322.979,420.417,341.333,394.667,341.333z"/>
	</g>
</g>
<g>
</g>
<g>
</g>
<g>
</g>
<g>
</g>
<g>
</g>
<g>
</g>
<g>
</g>
<g>
</g>
<g>
</g>
<g>
</g>
<g>
</g>
<g>
</g>
<g>
</g>
<g>
</g>
<g>
</g>
</svg>
