<svg height="512" viewBox="0 0 16 16" width="512" xmlns="http://www.w3.org/2000/svg"><path d="m1 5h3.5c.276367 0 .5-.223633.5-.5v-3.5h5v3h1v-3.5c0-.276367-.223633-.5-.5-.5h-6c-.132812 0-.259766.0527344-.353516.146484l-4 4c-.09375.0937501-.146484.220703-.146484.353516v8c0 .276367.223633.5.5.5h6.5v-1h-6zm.707031-1 2.29297-2.29297v2.29297z" transform="translate(1)"/><path d="m7 3.5c0-1.92969-1.57031-3.5-3.5-3.5s-3.5 1.57031-3.5 3.5c0 .949951.383362 1.81042 1 2.44171v4.55829c0 .17334.0898438.333984.237305.425293.146973.0917969.330566.0991211.486328.0219727l1.77637-.888184 1.77637.888184c.0708008.0351563.146973.0527344.223633.0527344.0913086 0 .182617-.0249023.262695-.074707.147461-.0913086.237305-.251953.237305-.425293v-4.55829c.616638-.631287 1-1.49176 1-2.44171zm-3.5-2.5c1.37842 0 2.5 1.12158 2.5 2.5s-1.12158 2.5-2.5 2.5-2.5-1.12158-2.5-2.5 1.12158-2.5 2.5-2.5zm.223633 8.05273c-.140625-.0703125-.306641-.0703125-.447266 0l-1.27637.638184v-3.04199c.456421.218506.961182.351074 1.5.351074s1.04358-.132568 1.5-.351074v3.04199l-1.27637-.638184z" transform="translate(8 5)"/></svg>