<svg id="Capa_1" enable-background="new 0 0 475.293 475.293" height="512" viewBox="0 0 475.293 475.293" width="512" xmlns="http://www.w3.org/2000/svg"><path d="m237.647 475.293c-131.037 0-237.647-106.61-237.647-237.646s106.61-237.647 237.647-237.647 237.647 106.61 237.647 237.647-106.611 237.646-237.647 237.646zm0-445.587c-114.66 0-207.941 93.28-207.941 207.941s93.28 207.941 207.941 207.941 207.941-93.28 207.941-207.941-93.281-207.941-207.941-207.941z"/><path d="m-253.192 288.847h253.806v29.716h-253.806z" transform="matrix(.351 -.936 .936 .351 -2.301 12.678)"/><path id="path-1_36_" d="m163.382 237.647c-24.571 0-44.559-19.988-44.559-44.559s19.988-44.559 44.559-44.559 44.559 19.988 44.559 44.559-19.988 44.559-44.559 44.559zm0-59.412c-8.195 0-14.853 6.658-14.853 14.853s6.658 14.853 14.853 14.853 14.853-6.658 14.853-14.853-6.658-14.853-14.853-14.853z" transform="translate(4 5)"/><path id="path-1_35_" d="m311.911 326.764c-24.571 0-44.559-19.988-44.559-44.559s19.988-44.559 44.559-44.559 44.559 19.988 44.559 44.559-19.988 44.559-44.559 44.559zm0-59.412c-8.195 0-14.853 6.658-14.853 14.853s6.658 14.853 14.853 14.853 14.853-6.658 14.853-14.853-6.658-14.853-14.853-14.853z" transform="translate(9 8)"/></svg>