<svg id="Capa_1" enable-background="new 0 0 528 528" height="512" viewBox="0 0 528 528" width="512" xmlns="http://www.w3.org/2000/svg"><path d="m478.5 0h-429c-27.296 0-49.5 22.204-49.5 49.5v330c0 27.296 22.204 49.5 49.5 49.5h131.049c-3.386 35.212-16.52 57.021-23.284 66h-25.265v33h264v-33h-25.264c-6.764-8.979-19.9-30.788-23.286-66h131.05c27.296 0 49.5-22.204 49.5-49.5v-330c0-27.296-22.204-49.5-49.5-49.5zm-429 33h429c9.104 0 16.5 7.396 16.5 16.5v247.5h-462v-247.5c0-9.104 7.396-16.5 16.5-16.5zm282.754 462h-136.508c7.904-15.521 15.42-37.723 17.737-66h101.034c2.316 28.276 9.833 50.478 17.737 66zm146.246-99h-429c-9.104 0-16.5-7.396-16.5-16.5v-49.5h462v49.5c0 9.104-7.396 16.5-16.5 16.5z"/><path d="m275.667 351.333c6.444 6.444 6.444 16.891 0 23.335s-16.891 6.444-23.335 0-6.444-16.891 0-23.335 16.891-6.444 23.335 0"/></svg>