<svg id="Capa_1" enable-background="new 0 0 450.823 450.823" height="512" viewBox="0 0 450.823 450.823" width="512" xmlns="http://www.w3.org/2000/svg"><path id="path-1_56_" d="m84.529 140.882c-15.562 0-28.176 12.614-28.176 28.176h56.353c0-15.561-12.615-28.176-28.177-28.176z" transform="translate(2 5)"/><path id="path-1_55_" d="m197.235 140.882c-15.562 0-28.176 12.614-28.176 28.176h56.353c0-15.561-12.615-28.176-28.177-28.176z" transform="translate(6 5)"/><path id="path-1_54_" d="m366.294 197.235c-15.562 0-28.176 12.614-28.176 28.176h56.353c-.001-15.561-12.615-28.176-28.177-28.176z" transform="translate(12 7)"/><path d="m140.882 281.765c31.122 0 56.353-25.231 56.353-56.353h-112.706c0 31.122 25.231 56.353 56.353 56.353z"/><path d="m299.7 282.798c-7.471 20.604-18.793 39.315-33.164 55.319h99.758c0-31.124-25.231-56.353-56.353-56.353-3.508.001-6.91.42-10.241 1.034z"/><path d="m443.422 86.249c-4.554-2.463-10.126-2.215-14.446.605-.402.272-41.945 26.513-119.153 25.783l.029 28.242c.029 0 .06.003.089.003 53.491 0 91.078-10.883 112.706-19.66v160.542c0 62.145-50.561 112.706-112.706 112.706-28.151 0-54.492-10.549-74.723-28.837-8.079 5.452-16.709 10.122-25.695 14.133 26.035 26.995 61.817 42.88 100.418 42.88 77.678 0 140.882-63.204 140.882-140.882v-183.147c0-5.173-2.861-9.905-7.401-12.368z"/><path d="m281.765 225.427v-183.147c0-5.173-2.862-9.906-7.402-12.368-4.568-2.449-10.112-2.215-14.446.605-.399.261-40.545 25.851-119.035 25.851-78.049 0-118.182-25.301-119.021-25.838-4.361-2.875-9.878-3.137-14.418-.674-4.581 2.45-7.443 7.224-7.443 12.424v183.147c0 77.678 63.204 140.883 140.882 140.883s140.883-63.205 140.883-140.883zm-140.883 112.706c-62.145 0-112.706-50.561-112.706-112.706v-160.542c21.628 8.778 59.215 19.66 112.706 19.66s91.078-10.883 112.706-19.66v160.542c0 62.145-50.561 112.706-112.706 112.706z"/></svg>