<svg height="512" viewBox="0 0 64 64" width="512" xmlns="http://www.w3.org/2000/svg"><g id="wifi"><path d="m55.73 25.49a1.5 1.5 0 0 1 -2.12 0 30.56 30.56 0 0 0 -43.21 0 1.5 1.5 0 0 1 -2.12-2.12 33.56 33.56 0 0 1 47.46 0 1.5 1.5 0 0 1 -.01 2.12z"/><path d="m49.5 29.59a1.5 1.5 0 0 1 -2.12 2.12 21.73 21.73 0 0 0 -30.76 0 1.5 1.5 0 0 1 -2.12-2.11 24.73 24.73 0 0 1 35 0z"/><path d="m43.29 35.81a1.5 1.5 0 0 1 -2.12 2.12 13 13 0 0 0 -18.33 0 1.5 1.5 0 0 1 -2.12-2.12 15.95 15.95 0 0 1 22.58 0z"/><path d="m32 39.92a5.27 5.27 0 1 0 5.27 5.27 5.27 5.27 0 0 0 -5.27-5.27zm0 7.54a2.27 2.27 0 1 1 2.27-2.27 2.27 2.27 0 0 1 -2.27 2.27z"/></g></svg>