<?xml version="1.0" encoding="iso-8859-1"?>
<!-- Generator: Adobe Illustrator 19.0.0, SVG Export Plug-In . SVG Version: 6.00 Build 0)  -->
<svg version="1.1" id="Layer_1" xmlns="http://www.w3.org/2000/svg" xmlns:xlink="http://www.w3.org/1999/xlink" x="0px" y="0px"
	 viewBox="0 0 469.333 469.333" style="enable-background:new 0 0 469.333 469.333;" xml:space="preserve">
<g>
	<g>
		<g>
			<path d="M341.333,0c-70.583,0-128,57.417-128,128c0,3.819,0.243,7.579,0.573,11.315L7.104,395.896
				c-0.625,0.781-1.104,1.635-1.479,2.521C1.937,403.802,0,409.833,0,416c0,8.542,3.333,16.583,9.375,22.625l21.313,21.323
				c6.042,6.052,14.083,9.385,22.646,9.385c6.167,0,12.167-1.927,17.542-5.583c0.896-0.385,1.771-0.896,2.563-1.542l256.559-206.783
				c3.742,0.331,7.51,0.574,11.337,0.574c70.583,0,128-57.417,128-128S411.917,0,341.333,0z M62,444.031
				c-0.771,0.365-1.5,0.823-2.188,1.375c-4.938,3.979-10.458,3.01-14.021-0.531l-21.333-21.333
				c-2.021-2.021-3.125-4.698-3.125-7.542c0-2.167,0.875-4.344,2.604-6.479c0.542-0.677,1-1.396,1.333-2.156l194.047-240.742
				c12.552,39.568,43.838,70.85,83.408,83.398L62,444.031z M341.333,234.667c-58.813,0-106.667-47.854-106.667-106.667
				c0-25.563,9.411-48.738,24.462-67.13l149.324,149.342C390.061,225.258,366.891,234.667,341.333,234.667z M423.538,195.13
				L274.214,45.788c18.392-15.046,41.563-24.454,67.12-24.454C400.146,21.333,448,69.187,448,128
				C448,153.562,438.589,176.738,423.538,195.13z"/>
			<path d="M195.125,259.125l-21.333,21.333c-4.167,4.167-4.167,10.917,0,15.083c2.083,2.083,4.813,3.125,7.542,3.125
				c2.729,0,5.458-1.042,7.542-3.125l21.333-21.333c4.167-4.167,4.167-10.917,0-15.083
				C206.042,254.958,199.292,254.958,195.125,259.125z"/>
		</g>
	</g>
</g>
<g>
</g>
<g>
</g>
<g>
</g>
<g>
</g>
<g>
</g>
<g>
</g>
<g>
</g>
<g>
</g>
<g>
</g>
<g>
</g>
<g>
</g>
<g>
</g>
<g>
</g>
<g>
</g>
<g>
</g>
</svg>
