<?xml version="1.0" encoding="UTF-8" standalone="no"?>
<!-- Generator: Adobe Illustrator 19.0.0, SVG Export Plug-In . SVG Version: 6.00 Build 0)  -->

<svg
   version="1.1"
   id="Layer_1"
   x="0px"
   y="0px"
   viewBox="0 0 512 386"
   xml:space="preserve"
   sodipodi:docname="reassurance_3.svg"
   width="512"
   height="386"
   inkscape:version="1.1.2 (0a00cf5339, 2022-02-04)"
   xmlns:inkscape="http://www.inkscape.org/namespaces/inkscape"
   xmlns:sodipodi="http://sodipodi.sourceforge.net/DTD/sodipodi-0.dtd"
   xmlns="http://www.w3.org/2000/svg"
   xmlns:svg="http://www.w3.org/2000/svg"><defs
   id="defs45" /><sodipodi:namedview
   id="namedview43"
   pagecolor="#ffffff"
   bordercolor="#666666"
   borderopacity="1.0"
   inkscape:pageshadow="2"
   inkscape:pageopacity="0.0"
   inkscape:pagecheckerboard="0"
   showgrid="false"
   inkscape:zoom="0.82519531"
   inkscape:cx="504.12308"
   inkscape:cy="321.13609"
   inkscape:window-width="1874"
   inkscape:window-height="1016"
   inkscape:window-x="46"
   inkscape:window-y="27"
   inkscape:window-maximized="1"
   inkscape:current-layer="Layer_1" />
<g
   id="g10"
   transform="translate(-0.25724852,-63.468935)">
	<g
   id="g8">
		<g
   id="g6">
			<path
   d="M 508.875,216.458 402.208,109.792 c -2,-2 -4.708,-3.125 -7.542,-3.125 h -96 v -32 C 298.667,68.771 293.896,64 288,64 H 42.667 C 19.135,64 0,83.135 0,106.667 v 266.667 c 0,17.646 14.354,32 32,32 H 57.266 C 66.1,430.112 89.559,448 117.333,448 c 27.775,0 51.234,-17.888 60.069,-42.667 h 157.197 c 8.835,24.779 32.293,42.667 60.068,42.667 27.775,0 51.234,-17.888 60.069,-42.667 h 14.598 c 23.531,0 42.667,-19.135 42.667,-42.667 V 224 c -10e-4,-2.833 -1.126,-5.542 -3.126,-7.542 z M 117.333,426.667 c -23.531,0 -42.667,-19.135 -42.667,-42.667 0,-23.532 19.135,-42.667 42.667,-42.667 23.532,0 42.667,19.136 42.667,42.667 0,23.531 -19.135,42.667 -42.667,42.667 z m 160,-309.334 V 384 h -96 c 0,-35.292 -28.708,-64 -64,-64 -35.292,0 -64,28.708 -64,64 H 32 c -5.885,0 -10.667,-4.781 -10.667,-10.667 V 106.667 c 0,-11.76 9.573,-21.333 21.333,-21.333 H 277.333 Z M 394.667,426.667 C 371.135,426.667 352,407.531 352,384 c 0,-23.531 19.135,-42.667 42.667,-42.667 23.532,0 42.667,19.135 42.667,42.667 0,23.532 -19.136,42.667 -42.667,42.667 z m 96,-64 c 0,11.76 -9.573,21.333 -21.333,21.333 h -10.667 c 0,-35.292 -28.708,-64 -64,-64 -35.292,0 -64,28.708 -64,64 h -32 V 128 h 91.583 l 100.417,100.417 z"
   id="path2" />
			<path
   d="m 362.667,160 c 0,-5.896 -4.771,-10.667 -10.667,-10.667 -5.896,0 -10.667,4.771 -10.667,10.667 v 85.333 c 0,5.896 4.771,10.667 10.667,10.667 h 106.667 c 5.896,0 10.667,-4.771 10.667,-10.667 0,-5.896 -4.771,-10.667 -10.667,-10.667 h -96 z"
   id="path4" />
		</g>
	</g>
</g>
<g
   id="g12">
</g>
<g
   id="g14">
</g>
<g
   id="g16">
</g>
<g
   id="g18">
</g>
<g
   id="g20">
</g>
<g
   id="g22">
</g>
<g
   id="g24">
</g>
<g
   id="g26">
</g>
<g
   id="g28">
</g>
<g
   id="g30">
</g>
<g
   id="g32">
</g>
<g
   id="g34">
</g>
<g
   id="g36">
</g>
<g
   id="g38">
</g>
<g
   id="g40">
</g>
</svg>
