<?xml version="1.0" encoding="iso-8859-1"?>
<!-- Generator: Adobe Illustrator 19.0.0, SVG Export Plug-In . SVG Version: 6.00 Build 0)  -->
<svg version="1.1" id="Capa_1" xmlns="http://www.w3.org/2000/svg" xmlns:xlink="http://www.w3.org/1999/xlink" x="0px" y="0px"
	 viewBox="0 0 512 512" style="enable-background:new 0 0 512 512;" xml:space="preserve">
<g>
	<g>
		<g>
			<path d="M469.333,21.333H42.667C19.146,21.333,0,40.469,0,64v298.667c0,23.531,19.146,42.667,42.667,42.667h149.381
				c-0.448,17.017-3.694,44.229-15.881,57.083c-4.479,4.719-9.625,6.917-16.167,6.917c-5.896,0-10.667,4.771-10.667,10.667
				c0,5.896,4.771,10.667,10.667,10.667h192c5.896,0,10.667-4.771,10.667-10.667c0-5.896-4.771-10.667-10.667-10.667
				c-6.542,0-11.667-2.188-16.125-6.896c-12.174-12.79-15.445-40.051-15.91-57.104h149.369c23.521,0,42.667-19.135,42.667-42.667V64
				C512,40.469,492.854,21.333,469.333,21.333z M197.729,469.333c12.889-19.749,15.384-48.188,15.698-64h85.151
				c0.319,15.813,2.819,44.251,15.693,64H197.729z M490.667,362.667c0,11.76-9.563,21.333-21.333,21.333H42.667
				c-11.771,0-21.333-9.573-21.333-21.333V320h469.333V362.667z M490.667,298.667H21.333V64c0-11.76,9.563-21.333,21.333-21.333
				h426.667c11.771,0,21.333,9.573,21.333,21.333V298.667z"/>
			<circle cx="256" cy="352" r="21.333"/>
			<path d="M304.563,137.542l64,32c1.542,0.76,3.167,1.125,4.771,1.125c3.896,0,7.667-2.156,9.542-5.896
				c2.625-5.271,0.5-11.677-4.771-14.313L333.188,128l44.917-22.458c5.271-2.635,7.396-9.042,4.771-14.313
				c-2.646-5.281-9.042-7.396-14.313-4.771l-64,32c-3.604,1.813-5.896,5.5-5.896,9.542S300.958,135.729,304.563,137.542z"/>
			<path d="M129.125,164.771c1.875,3.74,5.646,5.896,9.542,5.896c1.604,0,3.229-0.365,4.771-1.125l64-32
				c3.604-1.813,5.896-5.5,5.896-9.542s-2.292-7.729-5.896-9.542l-64-32c-5.271-2.604-11.646-0.49-14.313,4.771
				c-2.625,5.271-0.5,11.677,4.771,14.313L178.813,128l-44.917,22.458C128.625,153.094,126.5,159.5,129.125,164.771z"/>
			<path d="M256,192c-99.271,0-144.333,43.917-146.208,45.792c-4.146,4.146-4.146,10.854-0.021,15.031
				c4.167,4.198,10.896,4.188,15.063,0.094c0.417-0.396,41.396-39.583,131.167-39.583s130.75,39.188,131.125,39.542
				c2.083,2.083,4.813,3.125,7.542,3.125s5.458-1.042,7.542-3.125c4.167-4.167,4.167-10.917,0-15.083
				C400.333,235.917,355.271,192,256,192z"/>
		</g>
	</g>
</g>
<g>
</g>
<g>
</g>
<g>
</g>
<g>
</g>
<g>
</g>
<g>
</g>
<g>
</g>
<g>
</g>
<g>
</g>
<g>
</g>
<g>
</g>
<g>
</g>
<g>
</g>
<g>
</g>
<g>
</g>
</svg>
