<svg id="Capa_1" enable-background="new 0 0 443.294 443.294" height="512" viewBox="0 0 443.294 443.294" width="512" xmlns="http://www.w3.org/2000/svg"><path d="m297.689 120.374 34.064-102.138c1.42-4.221.703-8.875-1.894-12.487-2.61-3.612-6.791-5.749-11.241-5.749h-193.942c-4.451 0-8.631 2.137-11.242 5.749-2.597 3.612-3.314 8.252-1.907 12.487l34.051 102.165c-38.799 25.582-62.46 68.696-62.46 115.099 0 7.657 6.196 13.853 13.853 13.853h110.823v166.235l13.853 27.706 13.853-27.706v-166.235h110.823c7.657 0 13.853-6.196 13.853-13.853 0-46.415-23.674-89.543-62.487-115.126zm-185.972 101.273c4.464-34.673 25.514-65.653 57.143-82.955 5.885-3.206 8.617-10.173 6.507-16.532l-31.48-94.454h155.507l-31.494 94.427c-2.124 6.358.609 13.325 6.494 16.545 31.656 17.289 52.72 48.282 57.184 82.969z"/></svg>