<svg height="512" viewBox="0 0 16 16" width="512" xmlns="http://www.w3.org/2000/svg"><path d="m13.9502.236816c-.0913086-.147461-.251953-.236816-.425293-.236816h-4c-.189453 0-.362305.106934-.447266.276367l-2.05273 4.10547-2.05273-4.10547c-.0849609-.169434-.257812-.276367-.447266-.276367h-4c-.17334 0-.334473.0898438-.425293.237305-.0913085.147461-.0996093.331543-.0219727.486328l3.38733 6.77417c-.888427.903015-1.44006 2.13849-1.44006 3.5022 0 2.75684 2.24316 5 5 5s5-2.24316 5-5c0-1.35846-.548401-2.58881-1.43079-3.49091l3.37854-6.78644c.0771485-.154785.0683594-.338867-.0224609-.48584zm-9.73438.763184 2.51489 5.02972c-.910034.0541382-1.75983.334106-2.47546.812378l-2.92126-5.8421h2.88184zm2.80908 14c-2.20557 0-4-1.79443-4-4s1.79443-4 4-4 4 1.79443 4 4-1.79443 4-4 4zm2.78101-8.15173c-.570068-.383118-1.2262-.640381-1.92883-.762085l-.293091-.586182 2.25-4.5h2.8833l-2.91138 5.84827z" transform="translate(.975)"/></svg>