<?xml version="1.0" encoding="utf-8"?>
<svg viewBox="0 0 551.13 551.13" xmlns="http://www.w3.org/2000/svg">
  <path d="M 275.565 265.565 C 199.593 265.565 147.782 213.755 147.782 137.782 C 147.782 61.809 199.593 10 275.565 10 C 351.537 10 403.348 61.81 403.348 137.783 C 403.348 213.756 351.537 265.565 275.565 265.565 Z M 275.565 29.446 C 218.582 29.446 167.228 80.799 167.228 137.783 C 167.228 194.767 218.581 246.12 275.565 246.12 C 332.549 246.12 383.902 194.766 383.902 137.783 C 383.902 80.8 332.548 29.446 275.565 29.446 Z"/>
  <path d="M 489.461 546.13 L 61.668 546.13 C 52.148 546.13 44.445 543.427 44.445 533.907 L 44.445 415.349 C 44.445 397.554 48.544 390.836 63.177 381.686 C 192.516 301.004 358.731 301.021 487.936 381.669 C 502.585 390.835 506.685 397.554 506.685 415.348 L 506.685 533.906 C 506.685 543.427 498.982 546.13 489.461 546.13 Z M 68.891 526.685 L 482.239 526.685 L 482.239 415.349 C 482.239 409.345 479.346 403.794 474.687 400.885 C 356.431 327.066 194.782 327.015 76.427 400.902 C 71.785 403.795 68.892 409.345 68.892 415.35 L 68.891 526.685 Z"/>
</svg>