<?xml version="1.0" encoding="iso-8859-1"?>
<!-- Generator: Adobe Illustrator 19.0.0, SVG Export Plug-In . SVG Version: 6.00 Build 0)  -->
<svg version="1.1" id="Layer_1" xmlns="http://www.w3.org/2000/svg" xmlns:xlink="http://www.w3.org/1999/xlink" x="0px" y="0px"
	 viewBox="0 0 512 512" style="enable-background:new 0 0 512 512;" xml:space="preserve">
<g>
	<g>
		<g>
			<path d="M160,277.333c29.417,0,53.333-23.927,53.333-53.333S189.417,170.667,160,170.667S106.667,194.594,106.667,224
				S130.583,277.333,160,277.333z M160,192c17.646,0,32,14.354,32,32s-14.354,32-32,32s-32-14.354-32-32S142.354,192,160,192z"/>
			<path d="M232.958,310.01C215.917,299.969,189.417,288,160,288s-55.917,11.969-72.958,22.01C72.833,318.396,64,334.677,64,352.5
				v6.833C64,372.938,74.25,384,86.854,384h146.292C245.75,384,256,372.938,256,359.333V352.5
				C256,334.677,247.167,318.396,232.958,310.01z M234.667,359.333c0,2.219-1.271,3.333-1.521,3.333H86.854
				c-0.25,0-1.521-1.115-1.521-3.333V352.5c0-10.156,4.917-19.615,12.542-24.115c14.75-8.688,37.5-19.052,62.125-19.052
				s47.375,10.365,62.125,19.052c7.625,4.5,12.542,13.958,12.542,24.115V359.333z"/>
			<path d="M437.333,320h-128c-5.896,0-10.667,4.771-10.667,10.667c0,5.896,4.771,10.667,10.667,10.667h128
				c5.896,0,10.667-4.771,10.667-10.667C448,324.771,443.229,320,437.333,320z"/>
			<path d="M437.333,256H266.667c-5.896,0-10.667,4.771-10.667,10.667c0,5.896,4.771,10.667,10.667,10.667h170.667
				c5.896,0,10.667-4.771,10.667-10.667C448,260.771,443.229,256,437.333,256z"/>
			<path d="M469.333,106.667H298.667C298.667,83.135,279.521,64,256,64s-42.667,19.135-42.667,42.667H42.667
				C19.146,106.667,0,125.802,0,149.333v256C0,428.865,19.146,448,42.667,448h426.667C492.854,448,512,428.865,512,405.333v-256
				C512,125.802,492.854,106.667,469.333,106.667z M234.667,106.667c0-11.76,9.563-21.333,21.333-21.333s21.333,9.573,21.333,21.333
				v42.667h-42.667V106.667z M490.667,405.333c0,11.76-9.563,21.333-21.333,21.333H42.667c-11.771,0-21.333-9.573-21.333-21.333
				v-256c0-11.76,9.563-21.333,21.333-21.333h170.667v32c0,5.896,4.771,10.667,10.667,10.667h64c5.896,0,10.667-4.771,10.667-10.667
				v-32h170.667c11.771,0,21.333,9.573,21.333,21.333V405.333z"/>
		</g>
	</g>
</g>
<g>
</g>
<g>
</g>
<g>
</g>
<g>
</g>
<g>
</g>
<g>
</g>
<g>
</g>
<g>
</g>
<g>
</g>
<g>
</g>
<g>
</g>
<g>
</g>
<g>
</g>
<g>
</g>
<g>
</g>
</svg>
