<?xml version="1.0" encoding="iso-8859-1"?>
<!-- Generator: Adobe Illustrator 19.0.0, SVG Export Plug-In . SVG Version: 6.00 Build 0)  -->
<svg version="1.1" id="Layer_1" xmlns="http://www.w3.org/2000/svg" xmlns:xlink="http://www.w3.org/1999/xlink" x="0px" y="0px"
	 viewBox="0 0 512 512" style="enable-background:new 0 0 512 512;" xml:space="preserve">
<g>
	<g>
		<path d="M511.021,91.531c-1.479-3.219-4.479-5.49-7.958-6.063c-19.792-3.24-50.917-11.073-58.188-18.344
			c-7.271-7.271-15.104-38.406-18.354-58.177c-0.563-3.5-2.833-6.479-6.042-7.969c-3.25-1.49-6.958-1.26-10,0.563
			c-1.958,1.177-47.813,29.396-47.813,73.125v37.646c-6.621,5.49-13.372,11.171-20.107,16.928
			c-37.05-28.271-82.504-43.908-129.227-43.908C95.709,85.333,0,181.031,0,298.666S95.709,512,213.334,512
			s213.333-95.698,213.333-213.333c0-46.73-15.645-92.182-43.914-129.224c5.759-6.736,11.443-13.488,16.935-20.109h37.646
			c43.75,0,71.958-45.865,73.125-47.823C512.292,98.479,512.5,94.739,511.021,91.531z M405.334,298.666
			c0,105.865-86.125,192-192,192s-192-86.135-192-192s86.125-192,192-192c40.581,0,80.117,13.07,112.798,36.84
			c-11.542,10.191-22.583,20.352-32.409,29.996c-24.132-15.574-51.613-24.169-80.389-24.169C131,149.333,64,216.322,64,298.666
			S131,448,213.334,448s149.333-66.99,149.333-149.333c0-28.78-8.6-56.251-24.178-80.384c9.645-9.826,19.807-20.868,30-32.411
			C392.264,218.552,405.334,258.087,405.334,298.666z M205.792,306.208c2.083,2.083,4.813,3.125,7.542,3.125
			s5.458-1.042,7.542-3.125l44.513-44.513c7.456,10.464,11.945,23.172,11.945,36.971c0,35.292-28.708,64-64,64s-64-28.708-64-64
			c0-35.292,28.708-64,64-64c13.799,0,26.508,4.49,36.971,11.945l-44.513,44.513C201.625,295.291,201.625,302.041,205.792,306.208z
			 M256,223.999v1.202c-12.602-7.349-27.053-11.868-42.667-11.868c-47.063,0-85.333,38.281-85.333,85.333S166.271,384,213.334,384
			s85.333-38.281,85.333-85.333c0-15.611-4.52-30.064-11.868-42.667H288c7.49,0,20.004-8.865,34.889-22.546
			c11.867,19.807,18.444,42.017,18.444,65.212c0,70.583-57.417,128-128,128s-128-57.417-128-128s57.417-128,128-128
			c23.194,0,45.401,6.57,65.215,18.439C264.866,203.992,256,216.51,256,223.999z M437.334,127.999h-42.667
			c-3.188,0-6.208,1.427-8.229,3.875c-38.729,46.938-87.729,99.615-98.438,102.792h-10.708l-0.063-9.708
			c3.271-11.667,55.958-60.677,102.896-99.396c2.458-2.031,3.875-5.042,3.875-8.229V74.666c0-19.344,13.896-35.479,24.792-45.135
			c3.875,17.552,10.875,42.563,21,52.677c10.125,10.125,35.188,17.146,52.729,21.021
			C472.917,114.104,456.813,127.999,437.334,127.999z"/>
	</g>
</g>
<g>
</g>
<g>
</g>
<g>
</g>
<g>
</g>
<g>
</g>
<g>
</g>
<g>
</g>
<g>
</g>
<g>
</g>
<g>
</g>
<g>
</g>
<g>
</g>
<g>
</g>
<g>
</g>
<g>
</g>
</svg>
